<?xml version="1.0" encoding="UTF-8" standalone="no"?>
<!-- Created with Inkscape (http://www.inkscape.org/) -->

<svg
   xmlns:dc="http://purl.org/dc/elements/1.1/"
   xmlns:cc="http://creativecommons.org/ns#"
   xmlns:rdf="http://www.w3.org/1999/02/22-rdf-syntax-ns#"
   xmlns:svg="http://www.w3.org/2000/svg"
   xmlns="http://www.w3.org/2000/svg"
   xmlns:sodipodi="http://sodipodi.sourceforge.net/DTD/sodipodi-0.dtd"
   xmlns:inkscape="http://www.inkscape.org/namespaces/inkscape"
   width="110mm"
   height="47mm"
   viewBox="0 0 110 47"
   version="1.1"
   id="svg8"
   inkscape:version="0.92.4 (5da689c313, 2019-01-14)"
   sodipodi:docname="logo.svg">
  <defs
     id="defs2">
    <clipPath
       clipPathUnits="userSpaceOnUse"
       id="clipPath953">
      <rect
         style="opacity:1;fill:#ff0000;fill-opacity:1;fill-rule:nonzero;stroke:#ff0000;stroke-width:0;stroke-miterlimit:4;stroke-dasharray:none;stroke-dashoffset:0;stroke-opacity:1"
         id="rect955"
         width="6.3499999"
         height="6.4822917"
         x="57.960285"
         y="188.3224" />
    </clipPath>
    <clipPath
       clipPathUnits="userSpaceOnUse"
       id="clipPath953-3">
      <rect
         style="opacity:1;fill:#ff0000;fill-opacity:1;fill-rule:nonzero;stroke:#ff0000;stroke-width:0;stroke-miterlimit:4;stroke-dasharray:none;stroke-dashoffset:0;stroke-opacity:1"
         id="rect955-6"
         width="6.3499999"
         height="6.4822917"
         x="57.960285"
         y="188.3224" />
    </clipPath>
    <clipPath
       clipPathUnits="userSpaceOnUse"
       id="clipPath953-6">
      <rect
         style="opacity:1;fill:#ff0000;fill-opacity:1;fill-rule:nonzero;stroke:#ff0000;stroke-width:0;stroke-miterlimit:4;stroke-dasharray:none;stroke-dashoffset:0;stroke-opacity:1"
         id="rect955-9"
         width="6.3499999"
         height="6.4822917"
         x="57.960285"
         y="188.3224" />
    </clipPath>
    <clipPath
       clipPathUnits="userSpaceOnUse"
       id="clipPath953-3-9">
      <rect
         style="opacity:1;fill:#ff0000;fill-opacity:1;fill-rule:nonzero;stroke:#ff0000;stroke-width:0;stroke-miterlimit:4;stroke-dasharray:none;stroke-dashoffset:0;stroke-opacity:1"
         id="rect955-6-3"
         width="6.3499999"
         height="6.4822917"
         x="57.960285"
         y="188.3224" />
    </clipPath>
    <clipPath
       clipPathUnits="userSpaceOnUse"
       id="clipPath953-3-1">
      <rect
         style="opacity:1;fill:#ff0000;fill-opacity:1;fill-rule:nonzero;stroke:#ff0000;stroke-width:0;stroke-miterlimit:4;stroke-dasharray:none;stroke-dashoffset:0;stroke-opacity:1"
         id="rect955-6-1"
         width="6.3499999"
         height="6.4822917"
         x="57.960285"
         y="188.3224" />
    </clipPath>
    <clipPath
       clipPathUnits="userSpaceOnUse"
       id="clipPath5308">
      <rect
         style="opacity:1;fill:#000080;fill-opacity:1;fill-rule:nonzero;stroke:#012c85;stroke-width:0;stroke-miterlimit:4;stroke-dasharray:none;stroke-dashoffset:0;stroke-opacity:1"
         id="rect5310"
         width="38.629166"
         height="50.799999"
         x="-1.9567351"
         y="248.66949" />
    </clipPath>
  </defs>
  <sodipodi:namedview
     id="base"
     pagecolor="#ffffff"
     bordercolor="#666666"
     borderopacity="1.0"
     inkscape:pageopacity="0.0"
     inkscape:pageshadow="2"
     inkscape:zoom="2.8284271"
     inkscape:cx="312.34891"
     inkscape:cy="194.15478"
     inkscape:document-units="mm"
     inkscape:current-layer="g5298"
     showgrid="false"
     inkscape:window-width="1920"
     inkscape:window-height="1017"
     inkscape:window-x="-8"
     inkscape:window-y="-8"
     inkscape:window-maximized="1"
     width="148mm">
    <inkscape:grid
       type="xygrid"
       id="grid918" />
  </sodipodi:namedview>
  <metadata
     id="metadata5">
    <rdf:RDF>
      <cc:Work
         rdf:about="">
        <dc:format>image/svg+xml</dc:format>
        <dc:type
           rdf:resource="http://purl.org/dc/dcmitype/StillImage" />
        <dc:title></dc:title>
      </cc:Work>
    </rdf:RDF>
  </metadata>
  <g
     inkscape:label="Layer 1"
     inkscape:groupmode="layer"
     id="layer1"
     transform="translate(0,-250)">
    <path
       style="opacity:1;fill:#00f52b;fill-opacity:1;fill-rule:nonzero;stroke:#020202;stroke-width:0.1109577;stroke-miterlimit:4;stroke-dasharray:none;stroke-dashoffset:0;stroke-opacity:1"
       d=""
       id="path928"
       inkscape:connector-curvature="0"
       transform="scale(0.26458333)" />
    <text
       xml:space="preserve"
       style="font-style:normal;font-weight:normal;font-size:10.58333302px;line-height:1.25;font-family:sans-serif;letter-spacing:0px;word-spacing:0px;fill:#000000;fill-opacity:1;stroke:none;stroke-width:0.26458332"
       x="126.47194"
       y="193.35287"
       id="text1035"><tspan
         sodipodi:role="line"
         id="tspan1033"
         x="126.47194"
         y="203.00838"
         style="stroke-width:0.26458332" /></text>
    <flowRoot
       xml:space="preserve"
       id="flowRoot1037"
       style="font-style:normal;font-weight:normal;font-size:40px;line-height:1.25;font-family:sans-serif;letter-spacing:0px;word-spacing:0px;fill:#000000;fill-opacity:1;stroke:none"><flowRegion
         id="flowRegion1039"><rect
           id="rect1041"
           width="682"
           height="344"
           x="66"
           y="614.51971" /></flowRegion><flowPara
         id="flowPara1043" /></flowRoot>    <path
       inkscape:connector-curvature="0"
       id="path5173"
       d="m 3.6166919,294.07518 c -0.102781,-0.13901 -0.231919,-0.40994 -0.286972,-0.60205 -0.216776,-0.75643 -0.288478,-6.66226 -0.243558,-20.06086 0.02646,-7.89161 0.08132,-13.78201 0.132515,-14.22624 0.04805,-0.41697 0.139367,-0.87152 0.202929,-1.0101 0.229064,-0.49943 0.411892,-0.53242 3.3363665,-0.60195 1.553981,-0.0369 2.806654,-0.10575 2.987952,-0.16411 0.6421106,-0.20672 0.7854856,-0.4477 0.8943986,-1.50334 0.09318,-0.90316 0.226078,-1.13342 0.828523,-1.43551 0.356513,-0.17877 0.609453,-0.21989 1.665333,-0.27068 1.479868,-0.0712 1.56981,-0.1163 2.078996,-1.04287 0.380889,-0.69311 0.914901,-1.28135 1.445175,-1.59195 1.115091,-0.65315 2.63424,-0.65061 3.757344,0.006 0.519259,0.3037 1.197384,1.05139 1.543628,1.70197 0.419066,0.78741 0.539104,0.84499 1.926096,0.9239 1.992479,0.11336 2.463757,0.46989 2.616783,1.97962 0.08659,0.85431 0.194698,1.10677 0.53021,1.23819 0.131922,0.0517 1.450994,0.12764 2.931271,0.16882 1.480277,0.0412 2.835594,0.10192 3.011816,0.13498 0.179911,0.0338 0.395033,0.15499 0.490606,0.27649 0.516502,0.65663 0.563298,2.14853 0.563298,17.95849 0,16.01371 -0.04429,17.34926 -0.596634,17.9914 l -0.199922,0.23243 -3.827618,0.0694 c -2.105191,0.0382 -8.726778,0.0719 -14.71464,0.0749 l -10.8870201,0.006 z m 27.7046151,-0.64002 c 0.873397,-0.0557 1.23152,-0.1129 1.331082,-0.21246 0.217234,-0.21724 0.267659,-1.42847 0.373575,-8.97352 0.13187,-9.39395 -0.005,-24.08106 -0.235206,-25.23189 -0.04575,-0.22876 -0.130006,-0.32679 -0.365379,-0.42514 -0.484844,-0.20258 -3.181083,-0.34284 -4.39316,-0.22854 -1.334292,0.12583 -1.420758,0.20224 -1.526591,1.34918 -0.04122,0.44666 -0.114834,0.88666 -0.163598,0.97778 -0.149358,0.27908 -0.696573,0.70946 -1.051859,0.82728 -0.434633,0.14413 -12.179538,0.22089 -13.153206,0.086 -1.024309,-0.14195 -1.369222,-0.52364 -1.511935,-1.67316 -0.121189,-0.97614 -0.254127,-1.24618 -0.6712976,-1.3636 -0.987413,-0.27792 -4.77904,-0.32207 -5.301988,-0.0617 -0.402475,0.20036 -0.4445445,0.55834 -0.5412065,4.6052 -0.106328,4.45154 -0.02938,27.4241 0.09721,29.02232 0.061019,0.77038 0.1232905,1.09971 0.2276765,1.2041 0.128553,0.12855 0.831385,0.14902 6.6738606,0.19434 7.828773,0.0607 18.553492,0.01 20.212017,-0.0961 z M 7.8933014,290.34377 c -0.301344,-0.12124 -0.377192,-0.53481 -0.377192,-2.05665 0,-2.0505 0.0429,-2.09985 1.787499,-2.0565 0.8377566,0.0208 1.0220676,0.0495 1.0220676,0.15918 0,0.10962 -0.206029,0.14184 -1.1407176,0.17839 -1.5166476,-0.10336 -1.3077867,0.69503 -1.310712,1.80109 -0.0017,1.88752 -0.123135,1.76712 1.780034,1.76525 0.7617146,-7.2e-4 1.4290996,-0.0309 1.4830756,-0.0669 0.224929,-0.15019 0.303228,-0.49954 0.303228,-1.35296 0,-0.73857 0.02373,-0.89779 0.133789,-0.89779 0.111518,0 0.133789,0.17884 0.133789,1.07437 0,1.02176 -0.01072,1.08508 -0.218928,1.29329 -0.217065,0.21707 -0.232801,0.21887 -1.8507456,0.21189 -0.8975,-0.004 -1.682834,-0.0276 -1.745186,-0.0527 z m 8.7916486,-2.08092 c -1.487056,-0.0601 -1.765856,-0.12471 -1.765856,-0.40915 0,-0.43502 1.258098,-0.50864 7.838373,-0.45872 3.154376,0.0239 5.793134,0.0803 5.941883,0.12687 0.321483,0.10072 0.427081,0.49747 0.160912,0.60457 -0.484942,0.19512 -8.500827,0.28494 -12.175312,0.13643 z m -8.7916486,-3.62741 c -0.301344,-0.12124 -0.377192,-0.53481 -0.377192,-2.05665 0,-2.0505 0.0429,-2.09985 1.787499,-2.0565 0.8377566,0.0208 1.0220676,0.0495 1.0220676,0.15918 0,0.10962 -0.206029,0.14184 -1.1407176,0.17838 -0.881459,0.0345 -1.15988,0.075 -1.225032,0.17839 -0.04637,0.0736 -0.08493,0.8038 -0.08568,1.62271 -0.0017,1.88752 -0.123135,1.76712 1.780034,1.76525 0.7617146,-7.2e-4 1.4290996,-0.0309 1.4830756,-0.0669 0.224929,-0.15019 0.303228,-0.49954 0.303228,-1.35296 0,-0.73857 0.02373,-0.89779 0.133789,-0.89779 0.111518,0 0.133789,0.17884 0.133789,1.07437 0,1.02176 -0.01072,1.08508 -0.218928,1.29329 -0.217065,0.21707 -0.232801,0.21887 -1.8507456,0.21189 -0.8975,-0.004 -1.682834,-0.0276 -1.745186,-0.0527 z m 1.329759,-1.52132 c -0.194498,-0.38684 -0.417309,-0.75619 -0.495136,-0.82078 -0.236723,-0.19646 -0.170563,-0.36317 0.144126,-0.36317 0.19745,0 0.372076,0.0838 0.565648,0.2714 l 0.280018,0.27141 0.4306966,-0.51669 c 0.943325,-1.13166 1.917609,-1.97313 2.182365,-1.88488 0.05021,0.0167 -0.179717,0.33205 -0.510945,0.7007 -0.716402,0.79735 -1.113157,1.3358 -1.621926,2.20117 -0.5647446,0.96058 -0.5628306,0.9603 -0.9748466,0.14084 z m 7.5058556,-0.38437 c -0.697027,-0.0357 -1.364521,-0.0893 -1.483318,-0.11907 -0.251698,-0.0632 -0.362089,-0.36156 -0.1874,-0.50654 0.227212,-0.18857 3.364727,-0.27795 8.467981,-0.24124 5.120235,0.0368 5.574537,0.0662 5.574537,0.36019 0,0.25543 -0.250164,0.44641 -0.676445,0.51639 -0.536439,0.0881 -9.937363,0.0802 -11.695355,-0.01 z m -8.7350016,-3.56089 c -0.428502,-0.17946 -0.477805,-0.38497 -0.477805,-1.99162 0,-2.12445 -0.013,-2.10803 1.672361,-2.11207 0.9922886,-0.002 1.1818016,0.0186 1.1818016,0.13095 0,0.11135 -0.17618,0.13379 -1.0504646,0.13379 -1.518406,0 -1.446928,-0.0881 -1.446928,1.78254 0,1.24912 0.02382,1.52866 0.14016,1.64501 0.19578,0.19577 2.9444046,0.20753 3.2098126,0.0137 0.15072,-0.11006 0.177015,-0.26018 0.203108,-1.15951 0.0237,-0.81675 0.05638,-1.03307 0.156087,-1.03307 0.101651,0 0.126114,0.20664 0.126114,1.06533 0,0.99725 0.111957,1.00939 -0.144904,1.4033 -0.05977,0.0917 -0.28522,0.16255 -0.28522,0.16255 l -1.5464916,0.0196 c -0.85057,0.0108 -1.632505,-0.0165 -1.737631,-0.0605 z m 1.508276,-1.00708 c -0.04795,-0.0613 -0.195667,-0.3522 -0.328249,-0.64639 -0.132582,-0.29419 -0.323217,-0.62235 -0.423634,-0.72924 -0.100417,-0.10688 -0.155934,-0.23745 -0.123371,-0.29013 0.115851,-0.18746 0.509522,-0.0987 0.762217,0.17178 0.3267305,0.38537 0.4726943,0.18545 0.6962846,-0.1231 0.661252,-0.92078 2.120529,-2.1738 2.310443,-1.98388 0.03042,0.0304 -0.204455,0.32629 -0.521951,0.65748 -0.629755,0.65692 -1.179356,1.40536 -1.768495,2.40832 -0.3924246,0.66807 -0.4555236,0.72405 -0.6032446,0.53516 z m 7.2453516,-1.14266 c -1.548521,-0.0511 -1.828448,-0.0992 -1.828448,-0.31421 0,-0.5192 1.943148,-0.63075 8.653011,-0.49673 2.672817,0.0534 4.972168,0.12352 5.109669,0.15585 0.370839,0.0872 0.297338,0.4068 -0.116213,0.50532 -0.171696,0.0409 -2.038051,0.0929 -4.147456,0.11562 -2.109405,0.0227 -4.357058,0.0509 -4.994785,0.0627 -0.637727,0.0118 -1.841827,-10e-4 -2.675778,-0.0286 z m -8.7430356,-3.95434 c -0.431082,-0.18783 -0.488397,-0.43586 -0.488397,-2.11356 0,-1.47937 0.0052,-1.5213 0.213016,-1.72915 0.272208,-0.27221 0.602107,-0.3296 1.703591,-0.29634 0.7649366,0.0231 0.8951156,0.049 0.9207636,0.18299 0.02715,0.14188 -0.07095,0.15609 -1.0777516,0.15609 -1.478193,0 -1.402849,-0.0966 -1.402849,1.79935 0,1.31387 0.01763,1.48909 0.16311,1.62074 0.137452,0.12439 0.387321,0.14761 1.58842,0.14761 1.0891596,0 1.4661406,-0.0298 1.5984426,-0.12642 0.15072,-0.11006 0.177015,-0.26018 0.203108,-1.15951 0.0237,-0.81675 0.05638,-1.03308 0.156087,-1.03308 0.101421,0 0.126114,0.20199 0.126114,1.03158 0,0.56839 -0.04327,1.11244 -0.09637,1.21166 -0.182965,0.34187 -0.61079,0.43278 -2.0190876,0.42905 -0.887881,-0.002 -1.406545,-0.0419 -1.588195,-0.12101 z m 1.242407,-1.50326 c -0.177577,-0.35566 -0.403038,-0.73399 -0.501025,-0.84073 -0.076249,-0.1574 -0.153132,-0.23901 -0.095313,-0.30539 0.045278,-0.052 0.1444777,-0.0803 0.2952086,-0.0803 0.185069,0 0.316464,0.0768 0.457473,0.26758 0.108805,0.14716 0.240864,0.26757 0.293463,0.26757 0.0526,0 0.309519,-0.28045 0.570933,-0.62323 0.261413,-0.34278 0.680339,-0.80758 0.930945,-1.0329 0.474368,-0.4265 1.112425,-0.80328 1.204455,-0.71125 0.02929,0.0293 -0.189996,0.30301 -0.487305,0.60827 -0.724683,0.74406 -1.143485,1.29738 -1.723494,2.27711 -0.266964,0.45094 -0.516233,0.81989 -0.553931,0.81989 -0.0377,0 -0.213832,-0.29099 -0.39141,-0.64664 z m 8.0357846,-0.24185 c -1.275454,-0.0354 -2.329042,-0.0707 -2.341306,-0.0784 -0.0941,-0.0597 0.0143,-0.29503 0.175688,-0.38141 0.450319,-0.241 12.559131,-0.32469 13.626866,-0.0942 0.224839,0.0485 0.312174,0.11525 0.312174,0.23846 0,0.1224 -0.08882,0.19147 -0.312174,0.24274 -0.431804,0.0991 -8.63327,0.15125 -11.461248,0.0728 z m -9.4175476,-4.04221 c -0.304849,-0.23405 -0.349041,-0.48735 -0.349041,-2.00058 0,-2.05214 0.04269,-2.10129 1.787499,-2.05794 0.8377566,0.0208 1.0220676,0.0495 1.0220676,0.15918 0,0.10963 -0.206029,0.14184 -1.1407176,0.17839 -0.881459,0.0345 -1.15988,0.075 -1.225032,0.17838 -0.04637,0.0736 -0.08493,0.8038 -0.08568,1.62271 -0.0017,1.88846 -0.125592,1.76661 1.795858,1.76661 h 1.4007616 l 0.230334,-0.14819 c 0.160012,-0.20342 0.139384,-0.44609 0.139384,-1.24632 0,-0.76231 0.02347,-0.9245 0.133789,-0.9245 0.111518,0 0.133789,0.17884 0.133789,1.07437 0,1.02176 -0.01072,1.08508 -0.218928,1.29329 -0.21672,0.21672 -0.235377,0.2189 -1.8507456,0.21609 -1.141933,-0.002 -1.674304,-0.0355 -1.773338,-0.11149 z m 1.35791,-1.46669 c -0.194498,-0.38684 -0.417309,-0.75619 -0.495136,-0.82078 -0.188028,-0.15605 -0.180048,-0.36056 0.01458,-0.37374 0.307588,-0.0208 0.427672,0.029 0.701215,0.291 l 0.27755,0.26582 0.5838576,-0.69679 c 0.676093,-0.80687 1.039666,-1.15909 1.535226,-1.48728 0.582536,-0.3858 0.629198,-0.26938 0.121909,0.30417 -0.813449,0.91971 -1.135483,1.34931 -1.64891,2.19971 -0.272778,0.4518 -0.5501166,0.86641 -0.6163106,0.92135 -0.0962,0.0798 -0.191321,-0.0413 -0.473984,-0.60346 z m 0.8673346,-0.1631 c -6.72693,20.90155 -3.363465,10.45078 0,0 z m 5.690628,0.13632 c -0.732223,-0.0697 -0.921569,-0.15956 -0.831462,-0.39438 0.134561,-0.35066 0.318718,-0.36053 7.23052,-0.38747 3.67468,-0.0143 6.710902,0.006 6.747159,0.0446 0.03626,0.0389 0.09365,0.24123 0.12754,0.44972 l 0.06162,0.37907 -6.318216,-0.0125 c -3.475019,-0.007 -6.632739,-0.0424 -7.017157,-0.079 z m 9.462114,-5.28131 c 0.142782,-0.11495 0.162932,-5.02039 0.02098,-5.10812 -0.04978,-0.0308 -0.687631,-0.0917 -1.417449,-0.13534 -1.365022,-0.0817 -1.9866,-0.1899 -2.262449,-0.39389 -0.08696,-0.0643 -0.217757,-0.34593 -0.290663,-0.62584 -0.15748,-0.60461 -0.510495,-1.14475 -1.070094,-1.63733 -0.755264,-0.66481 -1.815451,-0.83067 -2.694286,-0.42151 -0.817305,0.38052 -1.600647,1.36356 -1.752338,2.19906 -0.11813,0.65066 -0.55314,0.7915 -2.446779,0.79219 -0.77005,2.7e-4 -1.441321,0.0408 -1.538572,0.0928 -0.162476,0.087 -0.172255,0.20251 -0.167942,1.98453 0.005,2.07787 0.07964,3.03761 0.249402,3.20799 0.06776,0.068 0.499598,0.13277 1.110259,0.1665 1.579034,0.0872 12.130644,-0.017 12.259928,-0.12107 z m -7.109161,-4.13309 c -0.77201,-0.33489 -1.252645,-0.96178 -1.252645,-1.6338 0,-0.66806 0.259841,-1.07746 0.976283,-1.5382 0.623516,-0.40099 1.18161,-0.31956 1.712699,0.24988 0.562069,0.60266 0.739193,1.19813 0.524419,1.76303 -0.127859,0.3363 -0.806698,1.04043 -1.136808,1.17916 -0.355326,0.14933 -0.438089,0.14732 -0.823948,-0.0201 z m 0.952896,-1.04639 c 0.158346,-0.15653 0.313073,-0.41103 0.343839,-0.56556 0.04698,-0.23594 0.008,-0.33292 -0.243304,-0.60514 -0.56557,-0.6127 -1.281404,-0.46959 -1.512703,0.30243 -0.08765,0.29254 -0.07808,0.39388 0.06475,0.68575 0.308659,0.63075 0.823449,0.70048 1.347421,0.18252 z m 36.169635,20.3192 c -0.92405,-0.25734 -1.76658,-0.81578 -2.26144,-1.49891 -0.27697,-0.38235 -0.34287,-0.77579 -0.12995,-0.77579 0.0706,0 0.31293,0.15974 0.5385,0.35497 0.22558,0.19524 0.5802,0.45464 0.78806,0.57645 0.50015,0.29311 1.43451,0.52638 1.87287,0.46759 0.86248,-0.11569 1.43428,-1.28689 1.61923,-3.31665 0.0313,-0.34339 0.074,-0.70817 0.095,-0.81061 0.021,-0.10245 -0.0127,-0.25571 -0.0747,-0.34059 -0.10303,-0.1409 -0.16301,-0.11392 -0.68933,0.31006 -1.10005,0.88617 -2.33261,1.30003 -2.92598,0.98247 -0.26544,-0.14206 -0.46058,-0.60941 -0.45818,-1.09729 0.004,-0.90092 0.83624,-2.55841 1.80614,-3.59901 1.38881,-1.49004 2.74226,-1.92789 3.52863,-1.14152 l 0.30801,0.30802 -0.0595,0.6874 c -0.0327,0.37807 -0.11994,1.42993 -0.1938,2.33746 -0.23471,2.88373 -0.48382,4.19595 -0.99052,5.21777 -0.5751,1.15975 -1.6138,1.661 -2.77301,1.33818 z m 0.4372,-5.13115 c 0.46204,-0.12834 1.59431,-0.88934 1.93107,-1.2979 0.30934,-0.37528 0.3407,-0.49091 0.45665,-1.68391 0.0954,-0.98144 0.0286,-1.20796 -0.35635,-1.20796 -0.22272,0 -0.40329,0.12051 -0.9021,0.60205 -1.23789,1.19505 -2.1561,2.9822 -1.7962,3.49603 0.14593,0.20834 0.21349,0.21763 0.66693,0.0917 z m -8.102246,2.16203 c -0.324929,-0.20661 -0.385106,-1.48523 -0.162516,-3.45304 0.208536,-1.84356 0.205326,-1.85245 -0.518424,-1.43526 -0.499091,0.2877 -1.264613,0.43749 -2.290294,0.44815 l -0.847329,0.009 -0.04857,0.75673 c -0.05757,0.89704 -0.210695,1.25581 -0.821009,1.92359 -0.944414,1.03334 -3.011342,1.62675 -3.651066,1.04822 -0.566233,-0.51208 -0.755804,-1.65474 -0.443714,-2.67456 0.382432,-1.24966 1.605959,-2.88345 2.45507,-3.27828 0.445107,-0.20697 0.895664,-0.21751 1.107395,-0.0259 0.09198,0.0832 0.26741,0.15135 0.38984,0.15135 0.141163,0 0.425829,0.17599 0.778094,0.48105 0.30552,0.26458 0.653551,0.49981 0.773401,0.52272 0.756587,0.14463 3.313892,-0.40708 3.670645,-0.7919 0.257922,-0.27821 0.590639,-0.27203 0.81655,0.0152 0.207498,0.26379 0.200261,0.36527 -0.141456,1.98391 -0.218632,1.03561 -0.212505,1.36237 0.02244,1.19695 0.04935,-0.0347 0.28984,-0.39924 0.53441,-0.80999 0.585585,-0.98347 1.251455,-1.65465 1.979619,-1.99539 0.51499,-0.241 0.63902,-0.26415 1.20021,-0.22399 0.68852,0.0493 1.07896,0.25468 1.12927,0.59415 0.0498,0.3358 -0.12252,0.42914 -0.87219,0.47254 -0.97761,0.0566 -1.67782,0.40573 -2.404734,1.19902 -0.626035,0.68321 -1.34405,2.05194 -1.579878,3.01167 -0.08332,0.3391 -0.225251,0.69029 -0.315399,0.78044 -0.166601,0.1666 -0.568023,0.21614 -0.760374,0.0938 z m -6.190204,-1.69454 c 0.727528,-0.44803 1.288805,-1.56549 1.40356,-2.79438 0.0525,-0.56219 0.04614,-0.58588 -0.231701,-0.86372 -0.157123,-0.15712 -0.383698,-0.31028 -0.5035,-0.34035 -0.727899,-0.18269 -1.714917,1.03174 -2.125117,2.61475 -0.211386,0.81577 -0.186682,1.23736 0.08864,1.51269 0.199007,0.199 0.278577,0.22164 0.60205,0.17127 0.205004,-0.0319 0.549734,-0.16704 0.766065,-0.30026 z m 49.286954,1.35705 c -0.69978,-0.3632 -1.05679,-1.01207 -1.23462,-2.24396 -0.0611,-0.42359 -0.15413,-0.78449 -0.20662,-0.80198 -0.0525,-0.0175 -0.49221,0.36372 -0.97716,0.84714 -1.07959,1.0762 -1.7341,1.44686 -2.55486,1.44686 -1.077284,0 -1.445154,-0.41767 -1.815354,-2.06103 -0.22977,-1.02001 -0.33698,-1.31873 -0.51624,-1.43842 -0.36075,-0.24088 -0.82054,0.16722 -1.82225,1.61745 -0.83344,1.2066 -1.7809,2.23877 -2.05504,2.23877 -0.0936,0 -0.26491,-0.077 -0.38072,-0.17117 -0.20445,-0.1662 -0.21029,-0.20829 -0.20092,-1.44938 0.011,-1.46043 0.20568,-2.74479 0.52018,-3.43205 0.17436,-0.38103 0.26013,-0.47016 0.50394,-0.52371 0.24227,-0.0532 0.32211,-0.0296 0.45506,0.13458 0.21508,0.26561 0.21004,0.32686 -0.15094,1.83567 -0.35867,1.49915 -0.37541,1.66908 -0.16031,1.62765 0.15726,-0.0303 0.23684,-0.12859 1.37962,-1.70434 0.83485,-1.15114 1.20223,-1.42403 1.98418,-1.47382 0.49129,-0.0313 0.58161,-0.01 0.82712,0.19679 0.35439,0.2982 0.50746,0.69296 0.69396,1.78968 0.16835,0.99007 0.302504,1.31562 0.630734,1.53068 0.56912,0.37291 1.38999,-0.0838 2.86624,-1.59451 0.87452,-0.89497 1.00295,-1.06696 1.13445,-1.5193 0.12146,-0.4178 0.21094,-0.55155 0.49461,-0.73928 0.44359,-0.29355 0.83844,-0.27104 0.88376,0.0504 0.0172,0.1219 -0.0385,0.7206 -0.12369,1.33046 -0.22503,1.61047 -0.12016,2.73669 0.3019,3.24202 0.19202,0.22991 0.78316,0.20006 1.31161,-0.0662 1.02931,-0.51867 2.89103,-2.17781 3.63487,-3.23935 0.55674,-0.79453 1.14152,-1.34621 1.72779,-1.63002 0.4927,-0.23851 1.09535,-0.31586 1.35952,-0.17448 0.27564,0.14752 0.72061,0.87936 0.72061,1.18518 0,0.66186 -0.80275,1.39753 -1.20445,1.1038 -0.14269,-0.10434 -0.13939,-0.14226 0.0508,-0.58427 0.33279,-0.7736 0.002,-1.0186 -0.73929,-0.54807 -0.82721,0.52484 -1.54181,1.78557 -1.64629,2.90445 -0.0639,0.68421 0.10953,1.07082 0.56586,1.26149 0.78413,0.32762 3.154609,-0.41753 4.825889,-1.51701 0.30755,-0.20232 0.57555,-0.44814 0.59554,-0.54625 0.02,-0.0981 0.0869,-0.43927 0.14871,-0.75814 0.24018,-1.23934 1.16493,-2.58899 2.0956,-3.05847 0.871,-0.43938 1.54949,-0.39865 2.0493,0.12303 0.22521,0.23508 0.25986,0.33919 0.25906,0.77838 -0.002,0.95575 -0.57574,1.69154 -2.1455,2.75031 -1.16039,0.78265 -1.24129,0.94021 -0.75945,1.47907 0.25709,0.28752 0.27073,0.29129 1.05282,0.29129 0.73387,0 0.84161,-0.0244 1.45942,-0.32977 0.41271,-0.20402 0.93226,-0.57152 1.36263,-0.96383 0.38256,-0.34874 0.74248,-0.61869 0.79981,-0.59988 0.21282,0.0698 0.15469,0.47158 -0.13052,0.90216 -0.57109,0.8622 -1.8998,1.75429 -3.06488,2.05776 -0.6528,0.17003 -1.05637,0.17373 -1.58531,0.0145 -0.62822,-0.18906 -0.9239,-0.45064 -1.22678,-1.08527 -0.15106,-0.3165 -0.33142,-0.57546 -0.40081,-0.57546 -0.0694,0 -0.45868,0.21595 -0.86508,0.47989 -1.669149,1.08406 -3.036099,1.60639 -4.217409,1.61153 -1.25361,0.005 -1.94413,-0.50988 -2.06639,-1.54219 -0.03,-0.25302 -0.0932,-0.46004 -0.14048,-0.46004 -0.0473,0 -0.41177,0.28754 -0.80995,0.63899 -0.84521,0.746 -1.64844,1.28522 -2.10228,1.41129 -0.47133,0.13093 -1.08633,0.109 -1.39196,-0.0496 z m 13.996219,-4.14141 c 0.67648,-0.53757 1.09396,-1.05032 1.12551,-1.38234 0.0349,-0.36679 -0.009,-0.49029 -0.2271,-0.6329 -0.18943,-0.12412 -0.26476,-0.12936 -0.49414,-0.0344 -0.54994,0.2278 -1.19971,1.289 -1.38102,2.25548 -0.0549,0.29254 -0.0414,0.32941 0.12067,0.32941 0.10036,0 0.48559,-0.24088 0.85608,-0.5353 z m -43.677873,3.76616 c -0.30022,-0.18602 -0.59924,-0.77105 -0.59924,-1.17242 0,-0.51696 0.26523,-1.36448 0.72264,-2.30911 0.35764,-0.7386 0.57983,-1.06043 1.12875,-1.63498 0.95694,-1.00162 1.21435,-1.13589 2.16228,-1.12786 0.82721,0.007 0.90406,0.0408 1.21623,0.53533 0.24574,0.38928 0.2566,0.64432 0.0714,1.67545 -0.22473,1.25092 -3.6e-4,2.55637 0.51363,2.98889 0.24247,0.20402 0.33729,0.23091 0.64228,0.18215 0.42741,-0.0684 0.90203,-0.34553 1.09441,-0.63914 0.17381,-0.26527 0.47575,-0.28595 0.47575,-0.0326 0,0.24401 -0.40231,0.83571 -0.74563,1.09666 -0.49397,0.37544 -0.83749,0.50691 -1.32367,0.50657 -0.80482,-5.4e-4 -1.25785,-0.41074 -1.55121,-1.40446 -0.076,-0.25754 -0.17838,-0.46826 -0.22745,-0.46826 -0.0491,0 -0.41748,0.33349 -0.8187,0.74109 -1.10187,1.11938 -2.06916,1.49163 -2.76143,1.06269 z m 1.44096,-1.0068 c 1.01732,-0.62021 2.23561,-2.55955 2.23761,-3.56195 0.003,-1.29867 -0.85853,-1.11353 -1.85927,0.39974 -0.73691,1.11431 -1.10862,1.93594 -1.15292,2.54841 -0.0277,0.38249 -10e-4,0.53333 0.11367,0.64822 0.19366,0.19365 0.29551,0.18835 0.66091,-0.0344 z m 12.30061,-1.91622 c -0.0312,-0.0312 -1.10473,-0.063 -2.38563,-0.0708 -1.96186,-0.0119 -2.34244,-0.0352 -2.41473,-0.14787 -0.12862,-0.20053 -0.0692,-0.36176 0.21016,-0.57013 0.25688,-0.19161 0.62513,-0.2137 4.47561,-0.26844 0.27697,-0.004 0.58115,0.0608 0.80273,0.17084 0.32724,0.16251 0.35677,0.2067 0.35677,0.53394 v 0.35677 l -0.4941,0.0262 c -0.27175,0.0144 -0.51962,6.3e-4 -0.55081,-0.0305 z m 16.021484,-5.47591 c -0.15145,-0.0362 -0.32203,-0.0947 -0.37907,-0.12992 -0.26404,-0.16319 0.032,-0.88571 0.4843,-1.18209 0.268,-0.1756 0.87118,-0.1894 1.0699,-0.0245 0.16394,0.13605 0.16123,0.64768 -0.005,0.96937 -0.0733,0.14179 -0.25604,0.29705 -0.41467,0.35235 -0.31307,0.10913 -0.35702,0.10999 -0.75533,0.0148 z"
       style="fill:#012c85;stroke-width:0.08919263;fill-opacity:1"
       sodipodi:nodetypes="ccscccccsccccsccccccsccccccccsccccccccccsscccccscsccccssscccccscccccscscccccsssccccccscccccscccccsccccscssscccssaccccsccccccsccsccccscccscccsscsccssccccccsscscccccscccccsccccccscccsccsssccccccccccccccccccccccccccccccccccccccccccccccccccccccccccsccccccccccccccccccccsccccccccccsccccsccccsccccccccccccccccccccccccscccscccccsccccccccccccccccsccccccccsccccscccccccscccscccccccccscccccsccccccscccsccccccccccccccccsccccccccccccc"
       clip-path="url(#clipPath5308)" />
    <path
       style="opacity:1;fill:#000000;fill-opacity:1;fill-rule:nonzero;stroke:none;stroke-width:0;stroke-miterlimit:4;stroke-dasharray:none;stroke-dashoffset:0;stroke-opacity:1"
       d="m 36.191182,61.951618 c -0.245169,-0.221496 -0.551318,-0.731847 -1.272303,-2.120932 -0.990199,-1.907765 -1.487059,-2.722889 -1.979186,-3.246952 -0.334824,-0.356551 -0.429599,-0.530605 -0.434182,-0.797373 -0.0068,-0.393667 0.227162,-0.523985 0.940574,-0.523985 0.905844,0 1.266332,0.194086 2.477685,1.333979 0.421438,0.396578 0.788481,0.725258 0.815651,0.7304 0.02717,0.0051 0.357653,-0.361937 0.734408,-0.815734 2.394649,-2.884319 3.416778,-4.041711 4.55764,-5.160769 0.91863,-0.901074 1.70719,-1.550491 2.642694,-2.176387 1.022279,-0.683952 1.736502,-1.013191 1.838814,-0.847646 0.04257,0.06887 -0.168796,0.472785 -0.429003,0.819818 -0.270187,0.360344 -0.474666,0.60413 -1.275044,1.520145 -2.811311,3.217487 -3.838454,4.601421 -5.85489,7.88866 -1.334402,2.175373 -2.17575,3.406327 -2.399319,3.510382 -0.148382,0.06906 -0.168204,0.06287 -0.363539,-0.113606 z"
       id="path5225"
       inkscape:connector-curvature="0"
       transform="matrix(0.26458333,0,0,0.26458333,0,250)" />
    <path
       style="opacity:1;fill:#000000;fill-opacity:1;fill-rule:nonzero;stroke:none;stroke-width:0;stroke-miterlimit:4;stroke-dasharray:none;stroke-dashoffset:0;stroke-opacity:1"
       d="m 36.218433,83.627212 c -0.07009,-0.08594 -0.647636,-1.11236 -1.283429,-2.28094 -0.635792,-1.168579 -1.400956,-2.489854 -1.700363,-2.936165 -0.299407,-0.446312 -0.544377,-0.911906 -0.544377,-1.034654 0,-0.444735 1.20463,-0.626153 1.870681,-0.281724 0.197046,0.101896 0.651351,0.522233 1.009566,0.934083 0.358216,0.411849 0.762596,0.78414 0.898623,0.827313 0.328837,0.104369 0.918087,-0.469366 2.448634,-2.384163 2.418975,-3.026269 5.392291,-5.644383 7.246432,-6.38075 1.05792,-0.420151 0.839125,-0.06833 -1.542835,2.480862 -2.540355,2.718708 -4.195245,4.93386 -6.181985,8.274888 -0.921598,1.549818 -1.860554,2.9375 -1.98762,2.9375 -0.05824,0 -0.163234,-0.07031 -0.233327,-0.15625 z"
       id="path5227"
       inkscape:connector-curvature="0"
       transform="matrix(0.26458333,0,0,0.26458333,0,250)" />
    <path
       style="opacity:1;fill:#000000;fill-opacity:1;fill-rule:nonzero;stroke:none;stroke-width:0;stroke-miterlimit:4;stroke-dasharray:none;stroke-dashoffset:0;stroke-opacity:1"
       d="m 36.097217,106.49738 c -0.138899,-0.15203 -0.73387,-1.23267 -1.322158,-2.40142 -0.588288,-1.16875 -1.29803,-2.43047 -1.577205,-2.80382 -0.602528,-0.8058 -0.652831,-1.20965 -0.173374,-1.391934 0.652242,-0.247982 1.450156,0.07718 2.481655,1.011304 1.130385,1.02369 1.477883,0.96765 2.532701,-0.40842 2.095239,-2.733355 5.460719,-5.977899 7.463928,-7.195716 0.681725,-0.414443 1.3125,-0.621836 1.3125,-0.431538 0,0.135572 -1.136613,1.484509 -2.510204,2.979122 -1.91451,2.083187 -3.667839,4.439522 -5.307623,7.133022 -2.36725,3.88844 -2.455906,3.99571 -2.90022,3.5094 z"
       id="path5229"
       inkscape:connector-curvature="0"
       transform="matrix(0.26458333,0,0,0.26458333,0,250)" />
    <path
       style="opacity:1;fill:#000000;fill-opacity:1;fill-rule:nonzero;stroke:none;stroke-width:0;stroke-miterlimit:4;stroke-dasharray:none;stroke-dashoffset:0;stroke-opacity:1"
       d="m 36.006043,127.01456 c -0.182605,-0.21701 -0.53282,-0.79372 -0.778257,-1.28158 -0.833744,-1.65725 -1.682196,-3.08204 -2.173067,-3.6492 -0.75822,-0.87606 -0.622959,-1.30032 0.41456,-1.30032 0.860141,0 1.34225,0.2448 2.354592,1.19559 0.86219,0.80976 0.897089,0.82872 1.107246,0.60151 0.119348,-0.12903 0.831168,-0.96538 1.581822,-1.85857 3.126836,-3.72053 6.375025,-6.66965 7.716991,-7.00647 0.184434,-0.0463 0.334743,-0.0359 0.33402,0.0231 -0.0022,0.18174 -0.993684,1.43662 -2.498686,3.16256 -2.070306,2.37423 -3.730165,4.65225 -5.399531,7.41043 -1.854733,3.06444 -2.124662,3.33876 -2.65969,2.70291 z"
       id="path5231"
       inkscape:connector-curvature="0"
       transform="matrix(0.26458333,0,0,0.26458333,0,250)" />
    <path
       style="opacity:1;fill:#ffffff;fill-opacity:1;fill-rule:nonzero;stroke:none;stroke-width:0;stroke-miterlimit:4;stroke-dasharray:none;stroke-dashoffset:0;stroke-opacity:1"
       d="m 31.550423,164.33108 c -15.437149,-0.19464 -14.869463,-0.12195 -15.196891,-1.94582 -0.465965,-2.59556 -0.649127,-15.41394 -0.801329,-56.08003 -0.198701,-53.090032 0.08562,-70.685443 1.181039,-73.089629 0.151671,-0.332881 0.572735,-0.742408 0.935698,-0.910059 2.259582,-1.043694 17.944075,-0.78528 20.262448,0.333839 1.104735,0.533275 1.537438,1.466386 2.025099,4.367069 0.257625,1.532391 0.682805,3.270845 0.944845,3.86323 0.563325,1.273489 1.707627,2.305228 2.997802,2.702917 2.01013,0.619609 14.672408,0.825937 33.054738,0.538617 10.491392,-0.163983 18.221722,-0.384126 18.714377,-0.532946 1.232825,-0.372407 3.53224,-2.203886 3.913955,-3.117456 0.182145,-0.435937 0.502216,-2.10534 0.711276,-3.709784 0.41431,-3.17972 0.78031,-4.014392 1.9371,-4.417653 3.2005,-1.115697 17.46822,-0.87263 20.388,0.347333 0.47375,0.197944 0.94355,0.626711 1.08004,0.985704 1.62499,4.274048 1.50651,124.935698 -0.12685,129.192178 -0.26379,0.68742 -1.53287,0.94074 -6.0089,1.19941 -5.32476,0.30772 -67.586678,0.5054 -86.012447,0.27308 z m 11.801606,-12.3099 c 0.797095,-0.79767 1.08128,-2.10858 1.076548,-4.96595 -0.0045,-2.74488 -0.248435,-4.125 -0.728945,-4.125 -0.3009,0 -0.401708,0.62737 -0.534998,3.32956 -0.179647,3.64196 -0.475155,4.71823 -1.39108,5.06647 -0.871445,0.33132 -9.573812,0.28867 -10.550228,-0.0517 -0.466692,-0.16269 -0.902747,-0.53736 -1.037306,-0.89128 -0.127682,-0.33583 -0.232148,-2.69011 -0.232148,-5.23173 0,-6.56627 0.02041,-6.59365 5.125,-6.87287 3.394942,-0.18571 4.208194,-0.34886 4.053421,-0.81318 -0.156209,-0.46863 -2.147346,-0.68501 -5.553421,-0.60351 -3.669246,0.0878 -4.149133,0.26443 -4.741631,1.74523 -0.854098,2.1346 -0.696381,11.92652 0.214491,13.31668 0.513881,0.78428 0.902687,0.82333 7.834433,0.78688 l 5.807292,-0.0305 z m 62.075511,-7.4654 c 1.97926,-0.13715 3.75114,-0.37591 3.9375,-0.53057 0.76829,-0.63762 0.21734,-1.87407 -1.03495,-2.32266 -0.27434,-0.0983 -8.31809,-0.27595 -17.875003,-0.39485 -17.62871,-0.21933 -29.80078,-0.0307 -32.192355,0.49903 -2.92971,0.64886 -2.638415,2.26069 0.47587,2.63315 4.963872,0.59365 38.589547,0.67713 46.688938,0.1159 z M 42.891372,130.84744 c 0.309375,-0.17039 0.735825,-0.57433 0.947667,-0.89765 0.487663,-0.74426 0.742013,-4.16425 0.500993,-6.73629 -0.15119,-1.61343 -0.2506,-1.92299 -0.5963,-1.85689 -0.350568,0.067 -0.44167,0.58811 -0.587865,3.36231 -0.101733,1.93052 -0.32389,3.6441 -0.539268,4.15957 l -0.366262,0.87659 -2.402391,0.18011 c -1.321315,0.0991 -3.821322,0.13288 -5.555572,0.0752 -3.073715,-0.10233 -3.168119,-0.12234 -3.745842,-0.79399 -0.583343,-0.67817 -0.59266,-0.77253 -0.59266,-6.00228 0,-3.96895 0.08235,-5.4259 0.32547,-5.75839 0.274022,-0.37474 0.955708,-0.4834 4.3125,-0.68741 2.811871,-0.17089 4.0919,-0.3455 4.342827,-0.5924 0.619022,-0.6091 -0.734339,-0.87064 -4.505102,-0.87064 -5.988303,0 -6.077196,0.11323 -6.083985,7.75 -0.0045,5.08865 0.262968,7.2435 0.955083,7.69394 0.847983,0.55187 12.612669,0.63694 13.590707,0.0983 z m -5.771624,-3.85471 c 0.276669,-0.30938 1.168154,-1.67084 1.981079,-3.02547 1.29936,-2.16522 2.457357,-3.69798 6.608305,-8.74698 1.109517,-1.34956 1.210072,-1.66505 0.53069,-1.66505 -1.005945,0 -4.521933,3.10172 -7.580686,6.6875 -0.967648,1.13437 -1.855774,2.0625 -1.973613,2.0625 -0.117839,0 -0.620326,-0.35654 -1.116637,-0.79231 -0.687728,-0.60383 -1.148845,-0.7971 -1.93848,-0.8125 -1.379895,-0.0269 -1.43921,0.41471 -0.285635,2.12659 0.501534,0.74427 1.19408,1.91572 1.538991,2.60322 0.640438,1.27656 1.265395,2.125 1.565278,2.125 0.09222,0 0.39404,-0.25313 0.670708,-0.5625 z m 71.611982,-3.51205 c 0.49658,-0.24725 1.04008,-0.7507 1.20778,-1.11878 0.47093,-1.03358 -0.26414,-1.46654 -2.92312,-1.72173 -1.20313,-0.11547 -11.750018,-0.20601 -23.437518,-0.20121 -21.124878,0.009 -25.905878,0.16571 -26.765403,0.87905 -0.894197,0.74212 -0.08895,1.86485 1.521933,2.12199 2.55835,0.40838 10.337067,0.54727 29.11847,0.51991 19.076708,-0.0278 20.432528,-0.0583 21.277858,-0.47923 z M 43.217719,110.29782 c 1.102693,-0.59015 1.30816,-1.57565 1.183518,-5.67659 -0.07634,-2.51167 -0.220375,-3.93901 -0.417375,-4.13601 -0.539738,-0.539741 -0.730738,0.26788 -0.91663,3.87587 -0.254135,4.93247 0.281555,4.56914 -6.73669,4.56914 -5.3214,0 -5.688836,-0.0296 -6.02193,-0.48529 -0.279347,-0.38214 -0.35474,-1.58841 -0.35474,-5.67573 0,-5.273306 0.141023,-6.235376 0.971362,-6.626709 0.222001,-0.104627 2.146132,-0.25144 4.275847,-0.326252 3.352948,-0.117783 3.882911,-0.192035 3.952017,-0.55372 0.10995,-0.57545 -1.911227,-0.80839 -5.670749,-0.653555 -3.354515,0.138155 -4.320913,0.491142 -4.755181,1.736885 -0.407823,1.169882 -0.614015,7.698911 -0.328785,10.410901 0.26014,2.47341 0.745265,3.39972 1.899057,3.6261 1.199962,0.23545 12.459932,0.16133 12.920279,-0.085 z m -4.220964,-6.9322 c 2.011537,-3.18764 3.736337,-5.452024 6.809029,-8.939166 1.9929,-2.261705 0.881975,-2.326843 -1.983315,-0.116288 -1.36269,1.051308 -4.41917,4.169975 -5.94354,6.064464 -0.522469,0.64933 -1.052929,1.1806 -1.178801,1.1806 -0.125872,0 -0.608705,-0.33351 -1.072963,-0.74114 -1.120765,-0.984041 -2.064197,-1.334841 -2.689662,-1.000104 -0.644182,0.344754 -0.613025,0.587624 0.233636,1.821194 0.394496,0.57478 1.183252,1.97317 1.75279,3.10755 0.702723,1.39964 1.175232,2.06182 1.470233,2.06039 0.285683,-0.002 1.177901,-1.17982 2.602593,-3.4375 z m 65.656815,-1.53361 c 3.46119,-0.17201 3.87668,-0.24205 4.37153,-0.73691 0.8018,-0.80179 0.338,-1.372821 -1.27863,-1.574246 -2.66881,-0.332523 -27.822351,-0.775013 -37.042598,-0.65164 -9.80439,0.131192 -12.223263,0.335665 -13.624183,1.151686 -1.777467,1.03536 -0.862137,1.75583 2.603128,2.04897 2.78859,0.23589 39.326915,0.0426 44.970753,-0.23786 z M 42.254999,87.308534 c 1.50254,-0.438903 1.857815,-1.127465 2.061085,-3.99459 0.218018,-3.075158 -0.02259,-5.758718 -0.516337,-5.758718 -0.19023,0 -0.358495,0.02812 -0.37392,0.0625 -0.01543,0.03437 -0.164118,1.780568 -0.33043,3.88043 -0.181778,2.295145 -0.424658,3.940405 -0.608948,4.125 -0.219322,0.219683 -1.900172,0.328613 -5.906374,0.382768 -5.367432,0.07256 -5.621107,0.0544 -6.113007,-0.4375 -0.485686,-0.485688 -0.513196,-0.80058 -0.513196,-5.874258 0,-7.080465 -0.339788,-6.626715 5.130053,-6.850632 3.491251,-0.14292 3.999478,-0.216808 4.071208,-0.591875 0.119352,-0.624085 -0.812071,-0.78332 -4.701261,-0.803725 -2.836974,-0.01488 -3.527437,0.05799 -4.331222,0.457162 -1.742145,0.865168 -1.796056,1.081945 -1.775527,7.139565 0.02585,7.62776 0.249422,8.162673 3.568167,8.537105 2.219016,0.250358 9.176679,0.0665 10.339709,-0.273232 z m -5.276673,-3.823663 c 0.2197,-0.305055 1.05515,-1.623395 1.856555,-2.929645 1.863441,-3.037312 3.580918,-5.313875 6.104836,-8.092115 1.107785,-1.219412 2.014155,-2.328482 2.014155,-2.4646 0,-0.360542 -1.140475,-0.0187 -2.227975,0.667813 -1.621218,1.02343 -3.254873,2.575025 -5.709037,5.422272 l -2.377088,2.757825 -1.039913,-1.020597 c -0.833587,-0.818103 -1.221115,-1.020598 -1.953196,-1.020598 -0.502305,0 -0.984891,0.115865 -1.072413,0.257478 -0.08752,0.141612 0.34071,1.125987 0.951626,2.1875 0.610915,1.061512 1.471641,2.576897 1.912723,3.367522 0.441083,0.790625 0.878087,1.433965 0.971121,1.429645 0.09303,-0.0043 0.348906,-0.257447 0.568606,-0.5625 z m 71.831414,-3.103537 c 1.10559,-0.343155 1.40148,-0.998745 0.70786,-1.568348 -0.93074,-0.764322 -4.29309,-0.884862 -23.688728,-0.84925 -17.747503,0.03259 -27.916398,0.32846 -28.872343,0.840068 -0.50772,0.271725 -0.902365,1.18478 -0.63008,1.457762 0.352575,0.353478 9.49155,0.47845 30.252423,0.413688 11.949705,-0.03728 21.824648,-0.167838 22.230868,-0.29392 z M 43.464689,64.910286 c 0.74382,-0.744297 0.773795,-0.860872 0.899983,-3.5 0.154692,-3.23532 -0.117393,-5.48006 -0.664243,-5.48006 -0.307162,0 -0.393222,0.664618 -0.496557,3.834778 -0.169173,5.189882 0.331882,4.839807 -6.785578,4.740915 -4.831644,-0.06714 -5.498022,-0.126105 -5.893513,-0.521548 -0.392778,-0.392732 -0.455217,-1.04807 -0.524023,-5.5 -0.09049,-5.855053 -0.0029,-6.622228 0.776564,-6.803091 0.303353,-0.07039 2.229282,-0.2359 4.279843,-0.367808 2.050562,-0.131908 3.844937,-0.356475 3.9875,-0.499039 0.597787,-0.597786 -0.371107,-0.832904 -3.889221,-0.943781 -4.028345,-0.126958 -5.198496,0.11445 -6.037951,1.24566 -0.732865,0.987574 -1.077154,5.374667 -0.758247,9.661942 0.277316,3.728142 0.630875,4.53077 2.120106,4.812927 0.467236,0.08852 3.406953,0.144775 6.532706,0.125 l 5.683186,-0.03596 z m -4.576997,-5.999412 c 1.132352,-1.776855 3.044852,-4.447527 4.25,-5.934825 3.19714,-3.945651 3.571602,-4.459794 3.42314,-4.700014 -0.203088,-0.328602 -1.894388,0.623888 -3.54091,1.99414 -0.808213,0.6726 -2.4112,2.333767 -3.562197,3.691481 -1.150996,1.357714 -2.235688,2.627515 -2.410426,2.82178 -0.269099,0.299173 -0.471696,0.214088 -1.324263,-0.556155 -1.027824,-0.928577 -1.874593,-1.284704 -2.68402,-1.128823 -0.729605,0.140509 -0.687883,0.931295 0.107931,2.045673 0.406949,0.569853 0.996483,1.542345 1.310075,2.161095 0.974717,1.923218 1.761298,3.03679 2.072806,2.934498 0.164474,-0.05401 1.225513,-1.551993 2.357864,-3.32885 z m 71.134818,0.206852 c -0.32815,-2.051945 -0.40375,-2.165705 -1.58555,-2.385862 -1.58349,-0.29499 -48.279481,-0.01055 -49.983088,0.304462 -2.126275,0.39317 -2.836588,1.68539 -1.278405,2.325713 1.099757,0.451937 8.469972,0.605552 31.200187,0.650287 l 21.796786,0.0429 z"
       id="path5237"
       inkscape:connector-curvature="0"
       transform="matrix(0.26458333,0,0,0.26458333,0,250)" />
    <path
       style="opacity:1;fill:#ffffff;fill-opacity:1;fill-rule:nonzero;stroke:none;stroke-width:0;stroke-miterlimit:4;stroke-dasharray:none;stroke-dashoffset:0;stroke-opacity:1"
       d="m 30.328872,164.31892 c -6.7375,-0.10088 -12.555344,-0.26892 -12.928541,-0.37341 -0.77383,-0.21667 -0.839512,-0.36865 -1.195092,-2.76528 -0.634742,-4.2782 -1.018625,-92.044334 -0.494802,-113.125004 0.323201,-13.006832 0.607857,-15.356677 1.921341,-15.860708 2.467786,-0.946979 18.155258,-0.613631 20.281772,0.430973 1.114204,0.547328 1.541755,1.464044 2.071444,4.441401 0.280173,1.574834 0.711915,3.325537 0.95943,3.890451 0.48891,1.115858 1.63077,2.099023 3.009448,2.591199 1.772007,0.63259 14.4276,0.842126 33.210445,0.549856 l 17.835445,-0.277528 1.289555,-0.594617 c 1.578467,-0.727836 3.311882,-2.372756 3.513017,-3.333674 0.08201,-0.391794 0.316086,-1.92479 0.520166,-3.406659 0.20409,-1.481868 0.49494,-2.925767 0.64634,-3.208664 0.69593,-1.300361 4.766,-1.862874 11.86003,-1.639145 7.69373,0.242642 10.38096,0.742699 10.86746,2.022282 1.63754,4.30705 1.52126,124.909247 -0.12456,129.198197 -0.26098,0.6801 -1.49756,0.9324 -5.87376,1.19843 -5.14389,0.3127 -70.826026,0.50959 -87.369138,0.2619 z m 13.12252,-12.42893 c 0.59321,-0.66432 0.73453,-1.09846 0.886912,-2.72461 0.20606,-2.19895 -0.0322,-5.85792 -0.405775,-6.2315 -0.4671,-0.4671 -0.652922,0.36642 -0.797292,3.57628 -0.162858,3.62094 -0.39585,4.44889 -1.354543,4.81338 -0.41584,0.1581 -2.659089,0.22955 -5.746114,0.18302 -4.462597,-0.0673 -5.116919,-0.12928 -5.509839,-0.52219 -0.392256,-0.39224 -0.455119,-1.04421 -0.522798,-5.42201 -0.108056,-6.98957 -0.03739,-7.08679 5.326929,-7.32861 3.147473,-0.14189 3.957471,-0.30611 3.802534,-0.77092 -0.141527,-0.42458 -1.740788,-0.62876 -4.927534,-0.62909 -4.890065,-5e-4 -5.447368,0.45244 -5.827517,4.73619 -0.30814,3.47231 0.08311,9.45005 0.677937,10.35787 0.505556,0.77157 0.96266,0.8163 7.983016,0.78107 l 5.708436,-0.0286 z m 61.568228,-7.33895 c 2.03374,-0.12948 3.91968,-0.35422 4.19098,-0.49942 0.6461,-0.34578 0.62974,-1.2954 -0.0327,-1.89486 -0.47324,-0.42828 -1.14319,-0.49562 -6.6875,-0.67217 -9.379653,-0.29868 -42.893171,-0.073 -44.323758,0.29854 -2.489693,0.64652 -2.503808,2.01924 -0.02609,2.53671 0.79105,0.16521 4.644525,0.38851 8.563275,0.49622 8.548645,0.23497 33.133452,0.0649 38.315743,-0.26502 z M 42.928937,130.81857 c 1.211347,-0.64829 1.399935,-1.36258 1.399935,-5.30235 0,-2.67884 -0.08823,-3.77423 -0.32291,-4.0089 -0.552545,-0.55255 -0.71884,0.12356 -0.870803,3.5404 -0.09665,2.17327 -0.26825,3.4505 -0.532127,3.96079 -0.363623,0.70316 -0.510805,0.76452 -2.21774,0.92447 -1.00555,0.0942 -3.492609,0.13216 -5.526799,0.0843 -3.696968,-0.087 -3.698782,-0.0873 -4.301575,-0.78848 -0.596476,-0.6938 -0.603046,-0.75933 -0.603046,-6.01472 0,-3.95629 0.08274,-5.42643 0.323962,-5.75632 0.270264,-0.36961 0.963008,-0.48449 4.179343,-0.69307 3.957956,-0.25668 5.046669,-0.50887 4.511746,-1.04511 -0.393561,-0.39454 -7.344026,-0.54306 -8.549957,-0.1827 -0.500448,0.14954 -1.102261,0.56546 -1.337362,0.92427 -1.105853,1.68775 -1.021093,12.32442 0.11231,14.09409 0.177433,0.27704 0.944811,0.41663 2.937566,0.53436 3.816825,0.22551 10.167537,0.0661 10.797457,-0.27102 z m -5.642694,-4.07584 c 0.3343,-0.44688 1.259441,-1.8735 2.05587,-3.17028 0.796429,-1.29678 2.356761,-3.46908 3.467406,-4.82734 3.296833,-4.03187 3.974205,-4.94336 3.801775,-5.1158 -0.585445,-0.58544 -4.270532,2.43004 -7.496047,6.13397 -1.217494,1.39807 -2.351009,2.54195 -2.518922,2.54195 -0.167913,0 -0.561019,-0.27221 -0.873569,-0.6049 -0.752042,-0.80051 -1.860783,-1.23899 -2.639031,-1.04366 -0.815859,0.20477 -0.792736,0.53012 0.134929,1.89856 0.419453,0.61875 1.106604,1.8 1.527002,2.625 0.791685,1.55362 1.391461,2.375 1.73424,2.375 0.109192,0 0.472048,-0.36563 0.806347,-0.8125 z M 106.37686,123.845 c 2.31917,-0.19305 3.39861,-0.76679 3.53111,-1.87688 0.0632,-0.52935 -0.0626,-0.71889 -0.625,-0.94219 -1.2346,-0.49017 -15.360508,-0.77049 -31.704098,-0.62916 -15.205633,0.13149 -20.079663,0.35213 -20.789328,0.9411 -0.825652,0.68523 -0.09641,1.77634 1.4002,2.09502 0.47348,0.10082 3.17348,0.2641 6,0.36284 6.66169,0.23271 39.522236,0.27109 42.187116,0.0493 z M 43.050622,110.31597 c 1.254537,-0.47698 1.48521,-1.45808 1.342337,-5.70927 -0.07101,-2.11282 -0.24468,-3.95707 -0.385935,-4.09832 -0.487677,-0.48768 -0.750092,0.6336 -0.935467,3.99715 -0.262625,4.76523 0.256177,4.4247 -6.741015,4.4247 -5.3214,0 -5.688836,-0.0296 -6.02193,-0.48529 -0.279323,-0.38211 -0.35474,-1.5878 -0.35474,-5.67122 0,-5.326311 0.128502,-6.250599 0.918349,-6.605474 0.251158,-0.112842 2.163116,-0.26881 4.248796,-0.346595 2.08568,-0.07778 3.87818,-0.227675 3.983334,-0.333092 0.105153,-0.105415 0.05224,-0.330415 -0.117582,-0.5 -0.219631,-0.21932 -1.490617,-0.308333 -4.402638,-0.308333 -3.760816,0 -4.15128,0.0425 -4.799564,0.522483 -1.341381,0.993135 -1.437881,1.489105 -1.430576,7.352521 0.0055,4.43404 0.07886,5.54054 0.41893,6.32063 0.672764,1.54327 1.214117,1.65837 7.852176,1.66958 3.187924,0.005 6.07941,-0.0979 6.425525,-0.22947 z m -6.045597,-3.94824 c 0.208256,-0.24063 1.190447,-1.72598 2.182646,-3.30078 1.790843,-2.8424 3.755691,-5.438901 6.402571,-8.460859 0.758317,-0.865775 1.310887,-1.68395 1.227937,-1.818167 -0.47496,-0.768498 -5.218585,3.134495 -8.222433,6.765312 -0.910958,1.101094 -1.7549,2.001994 -1.875427,2.001994 -0.120527,0 -0.690428,-0.39375 -1.266447,-0.875 -1.053153,-0.879889 -2.521209,-1.197449 -2.876688,-0.62227 -0.08591,0.139 0.229816,0.89837 0.701608,1.6875 0.471793,0.78912 1.280627,2.25039 1.797409,3.24727 0.977069,1.88477 1.29282,2.10985 1.928824,1.375 z m 66.982775,-4.5362 c 3.28455,-0.14323 4.29633,-0.27139 4.8125,-0.60959 0.79289,-0.51952 0.83683,-1.05104 0.11867,-1.435391 -1.40157,-0.750098 -44.554831,-1.210183 -48.996706,-0.522385 -2.04246,0.31626 -3.718392,1.001136 -3.718392,1.519526 0,0.31822 0.714567,1.01414 1.080357,1.05217 4.18146,0.43475 36.703445,0.43173 46.703571,-0.004 z M 42.226672,87.298361 c 1.44312,-0.387425 1.76001,-0.942005 2.026782,-3.54701 0.357773,-3.493655 -0.04719,-6.781847 -0.74883,-6.08021 -0.09129,0.09129 -0.286992,1.84699 -0.434892,3.901558 -0.165893,2.30449 -0.38785,3.854712 -0.579378,4.046552 -0.224287,0.224653 -1.86488,0.331988 -5.910279,0.386673 -5.367432,0.07256 -5.621107,0.0544 -6.113007,-0.4375 -0.484938,-0.48494 -0.513196,-0.801633 -0.513196,-5.751435 0,-5.3278 0.143716,-6.3115 0.971362,-6.648713 0.222001,-0.09045 1.922388,-0.215415 3.778638,-0.2777 3.93166,-0.13192 4.5,-0.220107 4.5,-0.698265 0,-0.55744 -0.789655,-0.680292 -4.580811,-0.71267 -2.988231,-0.02552 -3.694187,0.04272 -4.500411,0.435028 -1.74759,0.850375 -1.797264,1.054442 -1.765902,7.25459 0.03808,7.528307 0.245827,7.999487 3.703263,8.399217 2.132704,0.24657 8.913071,0.06642 10.166661,-0.270115 z m -3.232246,-7.02742 c 1.791568,-2.843612 3.443471,-4.974257 6.999943,-9.02862 2.54173,-2.897565 -1.19851,-1.053065 -4.416292,2.177895 -1.237938,1.243005 -2.851687,2.96767 -3.58611,3.832588 l -1.335315,1.572577 -1.095804,-1.010077 c -1.098933,-1.01296 -2.050968,-1.275305 -2.832463,-0.780518 -0.282858,0.179085 -0.132567,0.600443 0.778879,2.183673 0.621152,1.078972 1.492939,2.613337 1.937303,3.409697 0.669323,1.199518 0.869885,1.39652 1.169016,1.148263 0.198594,-0.164818 1.269973,-1.742283 2.380843,-3.505478 z m 70.045814,-0.05846 c 0.67202,-0.280787 0.92716,-0.527352 0.86731,-0.838135 -0.18926,-0.982785 -1.20712,-1.125932 -9.68147,-1.361572 -12.455501,-0.346338 -40.805216,0.108857 -42.928733,0.689285 -0.585728,0.160097 -1.285503,1.244472 -0.992303,1.537672 0.368953,0.368953 10.433455,0.513073 30.903455,0.442525 18.418531,-0.06347 20.991851,-0.11885 21.831741,-0.469775 z M 42.679772,65.489041 c 0.330495,-0.169847 0.834065,-0.62285 1.119042,-1.006667 0.46196,-0.622185 0.51879,-1.055915 0.5241,-4 0.0067,-3.705155 -0.188257,-4.888408 -0.731142,-4.437853 -0.25212,0.20924 -0.363933,1.235083 -0.4272,3.919443 -0.116898,4.959647 0.359237,4.640552 -6.777202,4.541955 -5.413594,-0.0748 -5.484187,-0.08269 -5.956013,-0.665888 -0.435768,-0.538632 -0.477187,-1.041005 -0.474071,-5.75 0.0037,-5.539492 0.07699,-6.198971 0.711079,-6.395435 0.225779,-0.06996 2.041774,-0.235175 4.035546,-0.367157 3.594657,-0.237957 4.499961,-0.393311 4.499961,-0.772213 0,-0.403612 -0.965441,-0.557122 -4.25,-0.675768 -3.781472,-0.136596 -5.004061,0.115089 -5.805185,1.195073 -0.740368,0.998078 -1.073848,5.145836 -0.763146,9.49185 0.286284,4.004473 0.595583,4.745798 2.093811,5.018435 1.69097,0.30771 11.56615,0.23019 12.20042,-0.09578 z m -5.158535,-4.496315 c 0.476291,-0.721875 1.404078,-2.15625 2.06175,-3.1875 1.235552,-1.937385 3.00541,-4.285469 5.619302,-7.45517 1.601288,-1.94178 1.74061,-2.559044 0.424895,-1.882504 -1.65527,0.85114 -3.71877,2.681413 -5.951049,5.278428 -1.268992,1.476336 -2.450253,2.842346 -2.625025,3.035581 -0.268973,0.297388 -0.458654,0.227638 -1.235275,-0.454245 -1.105359,-0.970519 -2.019676,-1.349456 -2.789705,-1.156191 -0.75629,0.189817 -0.721843,0.697447 0.133278,1.964056 0.388044,0.574775 1.135426,1.832545 1.660847,2.795045 1.069182,1.958595 1.356706,2.375 1.639919,2.375 0.107293,0 0.584772,-0.590625 1.061063,-1.3125 z m 72.528213,-1.75 c -0.3939,-2.254957 -0.47771,-2.353952 -2.14016,-2.527712 -2.02084,-0.21122 -29.154401,-0.168595 -40.705418,0.06395 -7.892533,0.15889 -9.23474,0.241467 -9.9375,0.611405 -1.06685,0.561595 -1.129695,1.546872 -0.125,1.959795 1.066737,0.43842 9.587712,0.613112 32.24375,0.661047 l 20.806248,0.04402 z"
       id="path5239"
       inkscape:connector-curvature="0"
       transform="matrix(0.26458333,0,0,0.26458333,0,250)" />
    <path
       style="opacity:1;fill:#999999;fill-opacity:1;fill-rule:nonzero;stroke:none;stroke-width:0;stroke-miterlimit:4;stroke-dasharray:none;stroke-dashoffset:0;stroke-opacity:1"
       d="m 46.404084,40.072909 c -0.671914,-0.112615 -1.496836,-0.276805 -1.623091,-0.40306 -0.126254,-0.126255 -0.389076,-1.074008 -0.507659,-1.95334 -0.331725,-2.459848 -0.710672,-12.493718 -0.507403,-15.061963 0.159219,-2.011691 0.121715,-2.694611 0.590914,-2.894507 0.29399,-0.12525 3.122027,-0.296122 6.284527,-0.41791 7.23324,-0.278553 8.406823,-0.60007 8.961332,-3.06801 0.673707,-2.99845 3.658279,-6.6000634 6.459048,-7.9788773 3.903482,-1.9216784 8.880622,-0.7512346 11.963952,2.8175813 1.008075,1.1668 2.615668,4.45531 2.615668,5.110952 0,0.193254 0.188792,0.75144 0.457735,1.278608 0.803667,1.575319 2.734114,1.892307 10.445374,2.446268 2.2,0.158043 3.951579,0.287417 4.089079,0.418184 0.3077,0.291917 0.492394,17.652495 -0.226427,19.328334 -1.375999,0.333274 -2.390658,0.274437 -6.117297,0.458246 -15.170271,0.82236 -28.697006,1.215863 -42.885752,-0.08051 z m 25.44333,-15.918238 c 0.46426,-0.220305 1.563768,-1.163432 2.443353,-2.095837 1.74646,-1.851341 2.380605,-3.430567 2.029882,-5.055071 -0.629095,-2.913907 -3.6848,-5.854786 -5.989847,-5.854786 -1.867985,0 -4.772484,1.628614 -5.739709,3.617541 -0.519212,1.067668 -0.691365,1.372539 -0.762221,3.044424 -0.07199,1.698738 0.189645,2.0058 0.919772,3.14361 1.238667,1.930296 3.653416,3.570271 5.417445,3.590889 0.46047,0.0054 1.217068,-0.170464 1.681325,-0.39077 z"
       id="path5243"
       inkscape:connector-curvature="0"
       transform="matrix(0.26458333,0,0,0.26458333,0,250)"
       sodipodi:nodetypes="ccsscssssscscccccccsssccc" />
    <ellipse
       style="opacity:1;fill:#ffffff;fill-opacity:1;fill-rule:nonzero;stroke:#012c85;stroke-width:0.5;stroke-miterlimit:4;stroke-dasharray:none;stroke-dashoffset:0;stroke-opacity:1"
       id="path5245"
       cx="18.5291"
       cy="254.68321"
       rx="1.6784506"
       ry="1.7942057" />
    <g
       id="g5298"
       transform="matrix(0.23214313,0,0,0.23214313,159.31661,227.09872)">
      <g
         id="g5316"
         transform="matrix(0.87500001,0,0,0.87500001,-379.91612,-163.485)"
         style="stroke:#012c85;stroke-opacity:1;stroke-width:4.88905736;stroke-miterlimit:4;stroke-dasharray:none;fill:#012c85;fill-opacity:1">
        <path
           sodipodi:nodetypes="cccscscscccsscscsccccsscscsccccccccccscccsscssccscccscscccscccssscscccccccsccccsccsccsccsccsssccsscscsccccsccccscssccscccccsccccccccccccccccscssccssccccccccccscsccccscccssccssssccccsccccccccccscccsccccccccsccccsccccccccsccccccccccccscscscccccccccccccccsccccscccccccccccccccccccccccscccsccccssscccccssccscsssccscscccccccccccscccccsccccccccssccscccsccccccccccccccscccccscccccsscsscccccsccccccccscccccccccscccccccccc"
           inkscape:connector-curvature="0"
           id="path5268"
           d="m -82.167922,427.06884 c -3.953687,-1.10571 -7.449008,-3.17332 -10.274454,-6.07774 -3.113592,-3.20061 -4.047,-6.05782 -2.432642,-7.44644 0.408297,-0.3512 1.016762,-0.63855 1.352142,-0.63855 0.704737,0 2.181797,0.9424 3.793644,2.42044 2.73444,2.50743 6.368886,4.16891 10.028653,4.58457 3.952004,0.44885 6.034958,-2.18249 7.469359,-9.43586 0.470559,-2.37947 1.087803,-7.07453 1.087803,-8.27434 0,-0.55955 -0.532807,-0.50083 -1.322917,0.1458 -1.886389,1.54382 -5.541803,3.73873 -7.473675,4.48761 -2.959092,1.14707 -6.182709,1.37743 -7.791341,0.55676 -3.428593,-1.74913 -4.381429,-6.1853 -2.509348,-11.68289 3.187025,-9.3591 10.80358,-18.18146 17.993752,-20.84241 3.579759,-1.3248 7.26363,-0.75012 9.580538,1.49457 1.888702,1.82982 1.969807,2.37327 1.338131,8.96612 -0.289142,3.01781 -0.656405,7.27286 -0.816134,9.45568 -0.401963,5.49304 -1.263515,12.725 -1.886072,15.83188 -1.658088,8.27473 -4.715703,13.51381 -9.172369,15.71641 -1.887341,0.93278 -2.16612,0.99407 -4.800777,1.05551 -1.82122,0.0425 -3.274081,-0.0682 -4.164293,-0.31712 z m 8.119425,-1.89364 c 6.487398,-3.03582 9.156928,-11.29929 10.716017,-33.17117 0.223022,-3.1287 0.521329,-6.63791 0.662905,-7.79827 0.606674,-4.97232 0.225227,-6.39278 -2.080723,-7.74834 -1.11108,-0.65315 -1.483651,-0.72526 -3.747286,-0.72526 -2.426472,0 -2.591802,0.039 -4.772848,1.12471 -5.518271,2.74706 -10.266039,7.91629 -13.851506,15.08109 -2.647304,5.29009 -3.346945,9.39247 -2.052778,12.03662 0.957861,1.95704 1.859077,2.45365 4.405257,2.42752 1.733579,-0.0178 2.516603,-0.17878 4.32643,-0.88952 2.704338,-1.06202 6.102382,-3.30724 8.848045,-5.84623 1.134086,-1.04873 2.109123,-1.85962 2.166752,-1.802 0.167204,0.16721 -0.607681,8.03923 -1.076573,10.93682 -0.897303,5.54507 -2.014017,8.60426 -3.879705,10.62829 -1.428218,1.54944 -2.87101,2.05883 -5.296625,1.87004 -4.023577,-0.31317 -7.48624,-1.91256 -11.361351,-5.24777 -2.138524,-1.84056 -2.933859,-1.9832 -3.071426,-0.55083 -0.113377,1.18052 1.065688,2.9798 3.388672,5.17119 3.816133,3.59995 8.370123,5.52883 12.707234,5.38226 1.856745,-0.0627 2.555676,-0.21754 3.969509,-0.87915 z m -8.869461,-24.81332 c -0.620117,-0.62012 -0.682524,-0.83718 -0.52297,-1.81902 0.673489,-4.1444 4.010951,-10.02999 8.194612,-14.45113 3.66118,-3.869 5.285745,-4.7039 6.785568,-3.48725 0.56819,0.46091 0.618087,0.68202 0.552299,2.44739 -0.130048,3.48972 -0.80531,8.63788 -1.258163,9.5922 -1.43815,3.03068 -8.207838,7.75864 -11.817556,8.25341 -1.095507,0.15016 -1.30646,0.0917 -1.93379,-0.5356 z m 4.284348,-1.72481 c 3.611526,-1.70854 7.231306,-4.59864 8.128958,-6.49029 0.415872,-0.87639 1.204534,-6.96509 1.210485,-9.34532 0.0037,-1.46868 -0.496885,-1.66408 -1.785806,-0.69713 -4.796083,3.59804 -10.911361,12.94324 -10.911361,16.67445 0,0.53847 0.12909,0.63355 0.859896,0.63338 0.472943,-1.2e-4 1.596964,-0.34891 2.497828,-0.77509 z m -41.58158,13.44721 c -1.47751,-1.29727 -1.8545,-2.94908 -1.8354,-8.04171 0.009,-2.32833 0.22003,-6.0788 0.46955,-8.33437 0.83762,-7.5719 0.81653,-7.14375 0.3519,-7.14375 -0.2307,0 -0.81594,0.23394 -1.30055,0.51986 -1.74266,1.02819 -9.23924,2.29854 -12.29465,2.0834 l -1.27429,-0.0897 -0.18146,2.189 c -0.3788,4.56957 -1.67452,7.34257 -4.97578,10.64882 -4.04161,4.04772 -9.3964,6.33905 -14.8188,6.341 -2.78102,0.001 -4.39677,-0.83147 -6.00546,-3.09412 -2.58903,-3.64153 -2.75757,-9.7281 -0.42339,-15.29033 2.15363,-5.13199 6.67692,-10.99977 10.48548,-13.60214 3.18304,-2.17496 7.13992,-2.49752 8.62889,-0.70343 0.18912,0.22788 0.71623,0.41477 1.17136,0.41532 1.07265,0.001 2.20804,0.71051 4.6574,2.90929 1.09501,0.98299 2.2467,1.86557 2.55931,1.96131 1.28995,0.39502 7.22941,-0.36132 11.41564,-1.45369 3.56822,-0.93111 4.28645,-1.20746 5.08161,-1.95527 1.27659,-1.20058 1.87872,-1.46263 3.36077,-1.46263 0.93205,0 1.54591,0.18144 2.26348,0.66904 1.91473,1.3011 2.17328,2.86384 1.25571,7.5898 -0.58379,3.00684 -0.64397,3.73482 -0.29786,3.60331 0.12766,-0.0485 0.9663,-1.06559 1.86364,-2.26017 2.91047,-3.87453 6.47896,-6.4773 10.457367,-7.62733 4.319151,-1.24853 10.175555,0.61804 10.891711,3.47144 0.283101,1.12796 -0.158134,2.54097 -1.08194,3.46477 -0.874516,0.87452 -0.890987,0.87872 -3.446671,0.87872 -4.429059,0 -7.574797,1.20042 -10.632567,4.05743 -4.00954,3.74628 -7.00729,9.23254 -8.82693,16.15438 -1.04183,3.96306 -2.04216,4.9236 -5.12755,4.9236 -1.24988,0 -1.58618,-0.11562 -2.39052,-0.82183 z m 4.2011,-0.87096 c 0.48688,-0.20343 0.97042,-0.50771 1.07453,-0.67616 0.10411,-0.16846 0.53037,-1.60631 0.94725,-3.19524 2.36921,-9.03035 7.3231,-16.40237 12.97213,-19.3042 2.163519,-1.11137 4.335732,-1.58994 7.216626,-1.58994 2.763446,0 3.358828,-0.2856 3.737079,-1.79267 0.60416,-2.40716 -5.037302,-4.52731 -8.989484,-3.37838 -3.094161,0.8995 -4.889411,1.9881 -7.434521,4.50812 -2.64616,2.62008 -3.8746,4.30996 -5.93146,8.1595 -1.00814,1.8868 -1.50134,2.5576 -1.88045,2.5576 -0.28264,0 -0.58087,-0.17456 -0.66274,-0.38791 -0.0819,-0.21334 0.33353,-2.56483 0.92311,-5.22552 1.14076,-5.14809 1.61836,-7.80803 1.62161,-9.03126 0.003,-1.13128 -1.51966,-2.55323 -2.73406,-2.55323 -1.19742,0 -1.40668,0.35681 -0.72072,1.22886 0.99585,1.26602 0.54409,2.53285 -1.73687,4.87061 -1.66833,1.70987 -1.62,1.51768 -2.47312,9.83564 -0.59209,5.77302 -0.69394,11.60966 -0.23954,13.72842 0.51519,2.40226 2.03769,3.19545 4.31063,2.24576 z m -35.43037,-2.96814 c 2.2182,-0.54962 6.05098,-2.49335 7.94525,-4.02928 2.6931,-2.18364 4.72818,-5.27108 5.43346,-8.24312 0.52391,-2.20777 0.38942,-5.29881 -0.28836,-6.62738 -0.30776,-0.60325 -0.49414,-1.16223 -0.41419,-1.24218 0.08,-0.08 0.62806,0.17405 1.21801,0.56446 1.47463,0.97587 3.0733,1.22032 6.07517,0.92897 5.27462,-0.51193 8.39338,-1.43144 10.30187,-3.03733 0.59184,-0.498 0.82822,-1.01595 1.08518,-2.3778 0.19693,-1.04368 0.23225,-1.83739 0.0882,-1.98146 -0.14407,-0.14407 -1.61481,0.12487 -3.67162,0.67139 -5.42822,1.44234 -11.24729,1.91218 -12.56668,1.01465 -0.3598,-0.24476 -1.41612,-1.1503 -2.34738,-2.01231 -2.14004,-1.98093 -3.10485,-2.56752 -4.225,-2.56877 -0.6119,-7.9e-4 -1.17438,-0.2497 -1.79515,-0.79474 -2.79131,-2.45081 -8.63007,1.09129 -13.29264,8.06401 -3.64354,5.44881 -4.9309,9.18747 -4.72998,13.73653 0.18901,4.27938 1.77921,7.32592 4.30471,8.24708 1.24022,0.45236 4.36466,0.31032 6.87917,-0.31272 z m -4.30288,-4.45499 c -1.21066,-1.0187 -1.50987,-2.35723 -1.12116,-5.01559 0.57631,-3.94144 2.29002,-8.46742 4.28052,-11.30508 1.26986,-1.8103 3.80188,-3.83607 5.09886,-4.07939 1.22817,-0.2304 2.9404,0.58091 4.21728,1.99829 l 1.02887,1.14209 -0.16212,2.27374 c -0.33812,4.74231 -2.16925,9.53722 -4.69938,12.30558 -1.6594,1.81565 -4.02997,3.05111 -6.23865,3.25139 -1.41185,0.12802 -1.63699,0.0745 -2.40422,-0.57103 z m 4.98699,-1.61719 c 3.49667,-1.75458 6.14655,-6.59489 6.87062,-12.55 0.25034,-2.0589 0.23115,-2.42958 -0.15634,-3.02097 -0.60762,-0.92734 -2.00472,-1.74175 -2.98794,-1.74175 -1.11975,0 -3.31231,1.81195 -4.71751,3.89861 -2.86127,4.24881 -4.75982,12.33347 -3.25072,13.84257 0.45834,0.45834 0.73752,0.5149 1.78594,0.36181 0.68347,-0.0998 1.78865,-0.45543 2.45595,-0.79027 z m 33.39009,-19.13948 c 0.59613,-1.00916 0.57766,-1.61282 -0.0494,-1.61282 -0.47947,0 -1.08421,1.12884 -1.08421,2.02385 0,0.62548 0.66339,0.38493 1.13358,-0.41103 z m 207.866224,27.92981 c -0.81195,-0.33402 -1.91243,-0.94 -2.44551,-1.34661 -2.15572,-1.64425 -4.03276,-5.60762 -4.70739,-9.93977 -0.16997,-1.09141 -0.41233,-2.0985 -0.53856,-2.23798 -0.13901,-0.15361 -1.06941,0.6524 -2.35972,2.04428 -3.41154,3.68006 -7.73838,6.64276 -10.96216,7.50606 -1.57067,0.42062 -4.897724,0.46702 -6.26462,0.0874 -1.510662,-0.41958 -3.440652,-1.84962 -4.367072,-3.23582 -1.179817,-1.76535 -1.836653,-3.67011 -2.604789,-7.55362 -1.150593,-5.81712 -1.606849,-6.74173 -2.97711,-6.03314 -1.005964,0.52021 -1.973511,1.64083 -4.171939,4.83198 -5.323541,7.72743 -7.638545,10.55022 -10.528332,12.83767 -1.528644,1.21001 -2.642283,1.31562 -4.41094,0.4183 -0.887426,-0.45023 -1.336334,-0.91636 -1.842,-1.91265 -0.629902,-1.24106 -0.66669,-1.53978 -0.635387,-5.15937 0.03481,-4.02576 0.654241,-10.46243 1.311106,-13.62412 0.533736,-2.56903 1.618528,-5.76143 2.313019,-6.80691 0.848958,-1.27802 2.647839,-2.126 4.216683,-1.98772 1.463636,0.129 2.185348,0.67473 2.873148,2.17254 0.688134,1.49855 0.636019,2.06077 -0.695389,7.50203 -0.653539,2.67091 -1.188251,4.96286 -1.188251,5.09323 0,0.6774 0.678024,-0.0539 2.662557,-2.87182 2.649292,-3.76182 4.944923,-6.57131 6.135397,-7.50878 3.077903,-2.42376 7.32554,-3.18357 9.987463,-1.78654 2.796182,1.46749 3.802954,3.51141 4.903401,9.95471 0.766858,4.49009 1.190403,5.82071 2.135328,6.70842 2.167237,2.03601 6.901437,-0.91238 14.078357,-8.7678 2.68729,-2.94135 3.2167,-3.66176 3.36838,-4.58372 0.28335,-1.72206 0.85127,-2.85494 2.05153,-4.09229 1.57189,-1.62044 2.90544,-2.25681 4.77113,-2.27677 1.41716,-0.0152 1.60528,0.0537 2.3151,0.84757 0.67556,0.75553 0.77261,1.06758 0.77261,2.48415 0,0.89104 -0.26191,3.06206 -0.58203,4.82447 -0.77547,4.26942 -0.85019,11.41941 -0.14322,13.70422 0.8541,2.76039 2.20766,3.13475 5.62004,1.55441 4.383906,-2.03028 13.991636,-10.52545 16.943786,-14.98174 3.66675,-5.53495 8.50413,-9.23692 13.30388,-10.18121 2.31002,-0.45447 3.42482,-0.0846 5.25214,1.74275 2.72603,2.72603 3.70094,6.17088 2.4438,8.63508 -0.69927,1.37068 -2.72442,3.40124 -3.98463,3.9953 -1.64047,0.7733 -3.537,0.52234 -4.38338,-0.58003 -0.51646,-0.67267 -0.38523,-2.16175 0.32491,-3.68722 1.32961,-2.85618 0.50972,-3.19817 -2.11926,-0.88397 -3.75203,3.30278 -6.15407,7.89251 -6.62342,12.65577 -0.30435,3.08869 0.96054,4.8538 3.47991,4.85609 4.91471,0.004 13.93772,-3.22591 19.94455,-7.14047 2.89486,-1.88652 3.175,-2.18001 3.175,-3.32623 0,-0.46285 0.29777,-2.01767 0.6617,-3.45516 1.70355,-6.72862 6.12029,-12.78457 11.06331,-15.16929 2.32881,-1.12352 5.11784,-1.72494 6.74958,-1.45548 4.50461,0.74389 7.10967,4.26793 6.40572,8.66544 -0.72567,4.53299 -4.42669,8.85895 -11.58499,13.54119 -2.29122,1.49868 -4.03448,2.81358 -4.03392,3.0427 0.003,0.75811 0.99372,2.0328 1.92601,2.47519 1.18755,0.56354 4.04251,0.57967 6.15336,0.0348 3.55735,-0.91831 6.91155,-2.96678 10.46181,-6.38923 1.24918,-1.20421 2.70221,-2.36955 3.22897,-2.58964 2.62761,-1.09789 4.0218,1.87538 2.40282,5.12428 -0.90665,1.8194 -4.50279,5.5833 -7.14164,7.47479 -10.26435,7.35739 -20.97555,6.79983 -24.87615,-1.2949 -0.50839,-1.05502 -0.9821,-1.91823 -1.0527,-1.91823 -0.0706,0 -1.52082,0.92112 -3.22267,2.04693 -13.08304,8.65457 -25.00559,10.44447 -30.32811,4.55308 -1.08741,-1.20362 -2.2606,-3.4838 -2.26467,-4.40158 -0.003,-0.31883 -0.10824,-0.64499 -0.23736,-0.7248 -0.12914,-0.0798 -1.11141,0.64303 -2.18281,1.6063 -4.14494,3.72653 -7.49165,5.96856 -10.406166,6.9713 -2.2253,0.76562 -5.59065,0.7266 -7.57021,-0.0878 z m 6.93849,-1.22261 c 2.943566,-0.90951 6.690226,-3.48039 11.041456,-7.57646 1.97866,-1.86264 2.42181,-2.42572 2.5431,-3.2314 0.0808,-0.53664 0.3312,-1.90999 0.55649,-3.05189 0.2253,-1.1419 0.3446,-2.14119 0.26517,-2.22063 -0.0794,-0.0795 -0.93546,0.55718 -1.90228,1.41472 -7.31985,6.49272 -10.911966,8.76529 -14.282306,9.03583 -1.63901,0.13157 -1.70447,0.11192 -2.59524,-0.77885 -2.20187,-2.20186 -2.67984,-9.00983 -1.23185,-17.54572 0.63537,-3.74563 0.67024,-4.88023 0.171,-5.56301 -0.84852,-1.1604 -4.11369,-0.0924 -5.57506,1.82358 -0.97822,1.2825 -0.88781,1.69293 0.36573,1.66006 3.14029,-0.0823 2.83125,3.54499 -0.74721,8.76967 -1.4946,2.1822 -1.61187,2.4598 -1.61187,3.81616 0,3.84466 1.52826,8.90697 3.32132,11.00176 2.35439,2.75059 5.84335,3.63212 9.68155,2.44618 z m 27.610666,-0.28373 c 2.90426,-0.41341 6.83827,-1.7329 10.58334,-3.5497 3.61828,-1.75529 10.69753,-6.25141 10.74126,-6.82191 0.0723,-0.94344 -0.0946,-2.47895 -0.2917,-2.68291 -0.12629,-0.1307 -1.01132,0.29055 -2.02946,0.96596 -5.83404,3.87018 -14.14492,6.9311 -19.71024,7.25934 -2.42293,0.1429 -2.62192,0.11398 -3.74492,-0.54413 -1.82954,-1.07218 -2.41273,-2.50022 -2.21646,-5.42723 0.17618,-2.62749 1.06912,-5.60015 2.51272,-8.3651 1.05746,-2.02533 4.80195,-6.07646 6.3409,-6.86018 1.22338,-0.62299 2.6957,-0.63225 3.14356,-0.0198 0.53586,0.73286 0.44464,1.45816 -0.44706,3.55357 -0.85103,1.99992 -0.84275,2.78316 0.0323,3.0609 0.93737,0.29751 2.05954,-0.15608 3.42635,-1.38496 1.53035,-1.37591 2.37512,-2.83463 2.3748,-4.10078 0,-2.07849 -2.79054,-5.99735 -4.64344,-6.52209 -1.8978,-0.53746 -5.84327,0.97355 -8.8818,3.40149 -1.72355,1.3772 -4.20163,4.05987 -4.20163,4.54849 0,0.14911 0.29292,0.61923 0.65092,1.0447 0.91959,1.09287 1.09956,2.37155 0.54002,3.83673 -0.62627,1.63981 -2.6043,4.54062 -4.91839,7.21284 -1.767,2.04045 -1.93334,2.33418 -2.03825,3.59922 -0.20071,2.4204 1.46751,5.25756 3.8557,6.55737 2.58638,1.40768 5.19104,1.76916 8.92145,1.23814 z m 39.02605,-2.34432 c 4.10067,-1.39455 8.07857,-3.88146 11.25847,-7.03855 2.94034,-2.91929 4.36697,-5.55938 3.63352,-6.72422 -0.54713,-0.86898 -1.15774,-0.57918 -3.57595,1.69723 -4.53573,4.26974 -8.98745,6.69469 -13.44814,7.32552 -2.96201,0.41888 -4.65645,0.0189 -6.19461,-1.46233 -1.24666,-1.2005 -2.02498,-3.08382 -1.57154,-3.80266 0.13994,-0.22185 1.72826,-1.34629 3.52957,-2.49876 6.52782,-4.17642 9.34847,-6.78703 11.0668,-10.24269 1.74583,-3.51093 1.45378,-6.70396 -0.78869,-8.62344 -1.45817,-1.24816 -2.52934,-1.55244 -4.96803,-1.41126 -6.80117,0.39371 -13.46174,8.13035 -15.10035,17.5399 l -0.29718,1.70664 0.95202,0.89788 c 1.17927,1.11221 1.24595,2.12601 0.26879,4.08694 -0.61799,1.24015 -0.65246,1.46616 -0.36108,2.36705 1.09247,3.37743 3.18844,5.52868 6.41165,6.58074 1.74519,0.56963 7.01032,0.34148 9.18475,-0.39799 z m -10.48912,-14.79108 c 0.0995,-0.62571 0.54816,-2.29259 0.99711,-3.70417 2.0596,-6.47571 5.33434,-10.214 8.2963,-9.4706 1.56591,0.39302 2.01753,2.7902 0.928,4.92584 -1.06646,2.09042 -2.40781,3.30793 -10.02818,9.10219 -0.31414,0.23886 -0.34507,0.10226 -0.19323,-0.85326 z m 5.08418,-4.70564 c 3.0897,-2.56621 4.3466,-4.27469 4.3466,-5.90822 0,-1.83321 -2.10915,-1.48621 -3.8454,0.63266 -0.9127,1.11381 -2.83377,4.9202 -3.17465,6.2902 -0.28771,1.15621 0.3521,0.91339 2.67345,-1.01464 z M 37.885071,406.67361 c 2.260018,-1.659 4.766789,-4.68737 8.967271,-10.83312 3.814033,-5.58034 5.534991,-7.27604 7.384399,-7.27604 1.452968,0 2.232848,1.6052 3.213664,6.61458 0.998802,5.10124 1.737254,7.06728 3.263347,8.68829 1.538891,1.6346 2.623111,2.02742 5.593874,2.02667 2.420048,-5.3e-4 2.796608,-0.072 4.412628,-0.83703 0.97173,-0.46001 2.51955,-1.34279 3.43958,-1.96173 1.91167,-1.28606 6.11859,-5.29489 7.61321,-7.25474 0.97182,-1.27429 1.01567,-1.42259 1.19347,-4.0349 0.10152,-1.49158 0.0857,-2.71179 -0.0351,-2.71157 -0.12078,2.2e-4 -1.82697,1.6181 -3.7915,3.59529 -5.58576,5.62174 -8.24875,7.38389 -11.15925,7.3843 -2.946414,5.3e-4 -4.061212,-1.7381 -5.089676,-7.93729 -0.820375,-4.94491 -1.26432,-6.42785 -2.344844,-7.83269 -1.178057,-1.53164 -2.332085,-2.08918 -4.324328,-2.08918 -4.462272,0 -6.686508,1.84826 -12.796894,10.63377 -3.376774,4.85512 -4.704852,6.56414 -5.100981,6.56414 -0.494625,0 0.02373,-3.15818 1.519946,-9.26041 0.802807,-3.27422 1.459863,-6.45354 1.460125,-7.06516 0.0011,-2.2418 -1.050507,-3.22512 -2.912515,-2.72373 -1.374587,0.37014 -2.198804,1.43714 -3.007019,3.89277 -1.370372,4.16367 -1.963671,8.40638 -2.174983,15.55341 -0.169061,5.71797 0.01101,6.47555 1.744996,7.34178 1.2652,0.63203 1.463132,0.59979 2.93057,-0.47741 z m 76.321659,-10.63945 c 1.38242,-1.69935 2.67965,-3.58869 3.27941,-4.77633 0.67529,-1.3372 0.65159,-2.8889 -0.0508,-3.32804 -0.38359,-0.23982 -0.58079,-0.15092 -1.11429,0.50237 -1.20693,1.47784 -2.92486,5.34605 -3.43702,7.73906 -0.2531,1.18248 0.29551,1.12564 1.32273,-0.13706 z M 85.953314,390.0858 c 0.90696,-1.50022 1.65327,-3.4001 1.65327,-4.20875 0,-1.2396 -1.9508,-0.69607 -2.52328,0.70302 -0.17862,0.43657 -0.40849,1.71649 -0.51083,2.84427 -0.22966,2.53114 0.14267,2.7095 1.38084,0.66146 z m -139.847281,19.22457 c -1.511446,-0.75319 -2.643624,-1.96699 -3.548645,-3.80447 -0.869974,-1.76631 -0.79661,-5.60354 0.169614,-8.87166 0.881216,-2.98059 3.66468,-8.77807 5.464469,-11.38156 2.524077,-3.6512 6.507313,-7.34599 9.605608,-8.91001 1.4258,-0.71974 1.74353,-0.78229 3.188734,-0.62783 2.155402,0.23038 2.482573,0.23124 3.771977,0.01 0.609675,-0.10465 1.386774,-0.12043 1.726888,-0.0351 0.99727,0.2503 2.835884,1.99671 3.493008,3.31783 0.334455,0.67241 0.802825,1.57975 1.040826,2.01631 0.573641,1.05223 0.552728,1.51857 -0.249177,5.55625 -0.591936,2.98048 -0.666771,3.91635 -0.56066,7.01146 0.200036,5.83481 1.386663,8.46667 3.817367,8.46667 1.758629,0 2.938745,-0.64448 4.865419,-2.65708 2.024648,-2.11495 2.792513,-2.32706 4.184404,-1.15586 0.63999,0.53852 0.814052,0.89513 0.814052,1.66784 0,1.53804 -1.225823,3.67115 -3.289951,5.72502 -4.929092,4.90457 -10.655765,5.36393 -14.541883,1.16646 -0.985663,-1.06463 -1.647275,-2.10992 -2.155701,-3.40581 -0.403461,-1.02836 -0.830601,-1.86974 -0.949198,-1.86974 -0.118597,0 -1.260648,1.04363 -2.537886,2.31918 -5.378686,5.37155 -10.538545,7.34118 -14.309265,5.46216 z m 5.542991,-1.16059 c 3.220943,-1.0018 7.49649,-4.45262 10.465303,-8.4466 0.82199,-1.10584 1.533391,-2.06022 1.580891,-2.12085 0.191487,-0.24443 0.335251,0.20783 0.607201,1.91016 0.635725,3.97949 2.324931,6.73986 4.893458,7.99653 1.318522,0.64509 1.694116,0.70931 3.527486,0.60318 2.588498,-0.14984 4.789296,-1.24104 6.980229,-3.46092 1.693897,-1.71627 3.006839,-4.0856 2.736318,-4.93794 -0.307758,-0.96966 -1.232863,-0.64202 -2.807184,0.99419 -0.813485,0.84547 -2.058125,1.80941 -2.765861,2.14208 -1.639443,0.77064 -3.963273,0.8684 -4.969529,0.20908 -2.953956,-1.93551 -4.038126,-9.51839 -2.46131,-17.21484 0.622988,-3.0408 0.656841,-3.47628 0.31882,-4.10104 -0.207999,-0.38444 -0.695997,-1.32994 -1.08444,-2.1011 -0.911262,-1.80908 -2.373034,-2.84559 -3.625707,-2.5709 -1.143619,0.25078 -2.730693,0.25555 -4.059981,0.0122 -0.893773,-0.16362 -1.321541,-0.0735 -2.513542,0.52961 -4.401587,2.22702 -9.031089,7.38275 -11.879741,13.23009 -3.256063,6.68362 -4.123156,12.0044 -2.407881,14.77561 1.156587,1.86858 3.00644,3.04464 4.819637,3.06411 0.530376,0.006 1.721001,-0.22499 2.645833,-0.51264 z m -1.300612,-4.68117 c -0.605401,-0.24358 -1.118912,-1.62235 -1.118912,-3.00427 0,-2.62977 1.545894,-6.27749 5.054894,-11.9276 2.483008,-3.99809 4.097491,-5.85997 5.852445,-6.74928 2.499739,-1.26671 3.70036,-0.3586 3.866135,2.92422 0.117708,2.33096 -0.345517,4.11081 -1.858958,7.14269 -1.755738,3.51727 -3.749553,6.27857 -6.255163,8.66298 -2.873592,2.7346 -4.252878,3.46931 -5.540441,2.95126 z m 3.399187,-2.88213 c 5.154491,-4.21705 9.642658,-12.64604 8.819348,-16.56315 -0.314132,-1.49455 -0.983496,-1.61316 -2.646545,-0.46895 -0.918178,0.63172 -1.818256,1.74324 -3.556828,4.39239 -4.366622,6.65363 -6.431579,11.65761 -5.650558,13.69291 0.290968,0.75826 1.210543,0.4391 3.034583,-1.0532 z m 60.040235,-5.55987 c -1.156065,-0.31132 -3.712388,-0.40392 -12.4354166,-0.45046 -10.53025,-0.0562 -11.018158,-0.0808 -11.9062504,-0.60026 -1.091406,-0.6384 -1.778577,-2.23286 -1.478161,-3.42982 0.28366,-1.13018 1.74507,-2.35314 3.4993294,-2.92836 1.378222,-0.45191 2.198153,-0.49894 7.37154,-0.42281 3.201459,0.0471 7.76451,-0.0645 10.140117,-0.24802 4.8076876,-0.3714 5.5019676,-0.28182 8.4578686,1.09134 1.458011,0.67732 1.732,0.92556 2.207176,1.99978 0.586801,1.32655 0.520075,2.64417 -0.189725,3.74646 -0.862616,1.33961 -3.311306,1.87639 -5.666478,1.24215 z m 4.06536,-1.71887 c 0.921356,-0.72473 0.970907,-2.30143 0.101827,-3.24009 -0.988001,-1.06709 -3.499554,-1.90936 -5.490104,-1.84114 -0.945885,0.0324 -5.5893226,0.10402 -10.3187496,0.15912 -6.916351,0.0806 -8.886105,0.18392 -10.066417,0.5281 -2.044703,0.59624 -3.0667354,1.78825 -2.6029954,3.03591 0.454068,1.22164 1.2228704,1.30049 12.1177244,1.24281 7.376139,-0.039 10.5329666,0.0366 11.5093746,0.27567 2.181418,0.5342 3.941913,0.47475 4.74934,-0.16038 z m 72.55514,-25.14748 c -2.34127,-0.54918 -3.56743,-1.97913 -3.19119,-3.72156 0.47411,-2.1958 2.46531,-4.78738 4.4762,-5.82584 0.84,-0.43378 1.38345,-0.51489 2.78024,-0.41495 3.02887,0.21671 4.50712,1.50877 4.50911,3.94109 0.003,2.49741 -1.38076,4.95045 -3.2756,5.81094 -1.18239,0.53694 -3.51205,0.62941 -5.29876,0.21032 z"
           style="fill:#012c85;stroke-width:4.88905736;stroke-miterlimit:4;stroke-dasharray:none;stroke:#012c85;stroke-opacity:1;fill-opacity:1" />
        <path
           style="opacity:1;fill:#012c85;fill-opacity:1;fill-rule:nonzero;stroke:#012c85;stroke-width:18.47832725;stroke-miterlimit:4;stroke-dasharray:none;stroke-dashoffset:0;stroke-opacity:1"
           d="m 320.06531,534.47049 c -0.74663,-0.74663 -2.87441,-4.59347 -2.13792,-10.16647 0.60779,-4.59923 2.38098,-8.97039 3.23255,-10.42747 1.21483,-2.07863 4.79258,-3.94189 6.87448,-4.109 1.49105,-0.11969 2.95185,0.82923 3.43913,1.9308 0.42027,0.9501 0.88855,2.86948 0.21879,5.37215 -2.20482,8.26652 -8.12566,20.40552 -9.85925,19.34453 -0.86355,0.79599 -3.15196,1.7978 -3.53554,1.41422 z"
           id="path5288"
           inkscape:connector-curvature="0"
           transform="matrix(0.26458333,0,0,0.26458333,0,250)"
           sodipodi:nodetypes="ccccccccc" />
        <path
           style="opacity:1;fill:#012c85;fill-opacity:1;fill-rule:nonzero;stroke:#012c85;stroke-width:4.88905736;stroke-miterlimit:4;stroke-dasharray:none;stroke-dashoffset:0;stroke-opacity:1"
           d="m 112.63218,397.20792 c -0.0761,-0.16324 -0.0593,-0.35032 0.0896,-0.99535 0.72207,-3.1295 3.09853,-8.0727 4.49363,-9.34707 0.22461,-0.20516 0.45884,-0.37304 0.52048,-0.37304 0.21341,0 0.64487,0.35479 0.81183,0.66755 0.14073,0.26366 0.16745,0.45303 0.16621,1.17805 -0.001,1.00025 -0.0945,1.33317 -0.68968,2.47557 -0.9616,1.8456 -3.95699,5.81184 -4.80647,6.36428 -0.43293,0.28153 -0.46748,0.28331 -0.58556,0.03 z"
           id="path5290"
           inkscape:connector-curvature="0" />
        <path
           style="opacity:1;fill:#012c85;fill-opacity:1;fill-rule:nonzero;stroke:#012c85;stroke-width:4.88905736;stroke-miterlimit:4;stroke-dasharray:none;stroke-dashoffset:0;stroke-opacity:1"
           d="m -119.13899,384.2299 c -0.29374,-0.32378 -0.10159,-1.33867 0.41476,-2.19004 0.33804,-0.55743 0.65986,-0.88698 1.03572,-1.06065 0.3156,-0.14588 0.52607,-0.14744 0.87987,-0.006 0.60115,0.23918 0.61403,0.8102 0.0397,1.76305 -0.35738,0.59292 -0.77733,1.06883 -1.16845,1.32408 -0.56247,0.36708 -0.9706,0.42489 -1.20165,0.1702 z"
           id="path5292"
           inkscape:connector-curvature="0" />
      </g>
      <path
         style="opacity:1;fill:#ffffff;fill-opacity:1;fill-rule:nonzero;stroke:#012c85;stroke-width:0;stroke-miterlimit:4;stroke-dasharray:none;stroke-dashoffset:0;stroke-opacity:1"
         d="m 147.00178,83.460819 c -2.10429,-0.986148 -3.25757,-4.152866 -2.92411,-8.029153 0.14677,-1.706215 0.58928,-3.172995 1.54252,-5.113007 1.63759,-3.332791 3.90972,-6.362101 6.13159,-8.174945 2.51991,-2.056005 4.52511,-2.596308 5.875,-1.583019 0.61942,0.464958 0.96663,0.612602 1.66935,0.709836 0.83153,0.11506 1.49393,0.546788 3.33051,2.170716 0.75617,0.668616 1.53449,1.298215 1.7296,1.399108 1.13462,0.586736 4.91818,0.251706 9.46522,-0.838133 1.13832,-0.272835 2.24926,-0.496063 2.46875,-0.496063 0.3678,0 0.39873,0.03183 0.39468,0.40625 -0.006,0.588799 -0.29665,1.844218 -0.53004,2.292291 -0.78927,1.515265 -5.25503,2.833651 -9.6717,2.855293 l -1.76864,0.0087 -1.19948,-0.61522 c -0.65971,-0.338371 -1.23769,-0.577002 -1.2844,-0.530292 -0.0467,0.04671 0.0751,0.464185 0.2707,0.92772 0.3174,0.752214 0.3613,1.024154 0.40848,2.530292 0.0654,2.086445 -0.11135,2.944792 -0.96505,4.6875 -1.30916,2.672451 -3.22657,4.485872 -6.44298,6.093526 -2.32764,1.163425 -4.0843,1.594863 -6.48512,1.592753 -1.19499,-10e-4 -1.47751,-0.04229 -2.01488,-0.294119 z m 5.00499,-3.143241 c 4.1745,-1.056665 6.97071,-5.564972 7.55846,-12.186419 l 0.1276,-1.4375 -0.97995,-0.951604 c -1.60784,-1.561329 -2.79099,-1.835419 -4.21013,-0.975326 -0.96034,0.582022 -2.21795,1.748117 -2.8662,2.657616 -1.35812,1.905449 -2.73438,5.427776 -3.2101,8.215765 -0.42441,2.487308 -0.17783,3.704719 0.90998,4.492724 0.4271,0.309385 0.63611,0.373325 1.22035,0.373325 0.38774,0 1.04023,-0.08486 1.44999,-0.188581 z"
         id="path5318"
         inkscape:connector-curvature="0"
         transform="matrix(1.1397423,0,0,1.1397423,-686.28613,98.651552)" />
      <path
         style="opacity:1;fill:#ffffff;fill-opacity:1;fill-rule:nonzero;stroke:#012c85;stroke-width:0;stroke-miterlimit:4;stroke-dasharray:none;stroke-dashoffset:0;stroke-opacity:1"
         d="m 177.47558,85.635595 c -0.90322,-0.550716 -1.16149,-1.704092 -1.16079,-5.183644 5.9e-4,-2.877676 0.12377,-4.808597 0.57071,-8.945792 0.46344,-4.289976 0.45147,-4.253147 1.88853,-5.8125 0.92622,-1.005039 1.54025,-2.004458 1.54025,-2.506947 0,-0.148699 -0.1652,-0.579949 -0.36712,-0.958334 -0.42161,-0.790082 -0.35273,-0.972219 0.36765,-0.972219 0.58506,0 1.49644,0.575822 1.87125,1.182283 0.2561,0.414372 0.2772,0.558705 0.20238,1.384329 -0.0459,0.506949 -0.33731,2.147787 -0.6475,3.646307 -0.57015,2.754376 -1.08429,5.338997 -1.23083,6.18746 -0.07,0.405272 -0.0394,0.489446 0.24585,0.676353 0.31822,0.208505 0.33419,0.205005 0.68575,-0.150378 0.19797,-0.200119 0.7652,-1.095104 1.26053,-1.988854 1.19373,-2.153952 2.15451,-3.546508 3.3307,-4.82754 2.38495,-2.597521 3.80593,-3.608094 6.24707,-4.442783 0.81133,-0.277413 1.1988,-0.333574 2.34677,-0.34015 1.5844,-0.0091 2.66891,0.261741 3.80232,0.949484 1.11725,0.67794 1.39701,1.289608 1.01341,2.215699 -0.27197,0.656588 -0.7072,0.78956 -2.94073,0.898443 -2.24921,0.109649 -3.39675,0.351938 -4.85254,1.024553 -3.02536,1.397801 -5.93813,4.561103 -8.02605,8.716383 -1.08078,2.15091 -1.73708,3.98887 -2.86274,8.017062 -0.13911,0.497789 -0.30148,0.782703 -0.5412,0.949631 -0.8197,0.570804 -2.06015,0.697918 -2.74367,0.281154 z"
         id="path5320"
         inkscape:connector-curvature="0"
         transform="matrix(1.1397423,0,0,1.1397423,-686.28613,98.651552)" />
      <path
         style="opacity:1;fill:#ffffff;fill-opacity:1;fill-rule:nonzero;stroke:#012c85;stroke-width:0;stroke-miterlimit:4;stroke-dasharray:none;stroke-dashoffset:0;stroke-opacity:1"
         d="m 206.31428,96.812055 c -2.62041,-0.56191 -5.35858,-2.139836 -7.56528,-4.359654 -1.51979,-1.52883 -2.30324,-2.867983 -2.11549,-3.61603 0.20586,-0.820237 0.58782,-0.695422 2.4517,0.801159 2.81799,2.262671 4.65613,3.191675 7.29157,3.685185 2.49528,0.467263 4.05589,0.08658 5.34262,-1.30324 1.26069,-1.361702 2.04709,-3.277662 2.72056,-6.628336 0.55889,-2.780645 1.31641,-10.011955 1.04844,-10.00857 -0.0614,7.5e-4 -0.75849,0.573886 -1.54912,1.273579 -3.00434,2.65881 -5.48478,4.207542 -7.97022,4.976443 -0.64226,0.198694 -1.18027,0.261068 -2.26561,0.262664 -1.81251,0.0027 -2.36105,-0.23061 -2.98685,-1.270194 -1.35531,-2.251466 -0.98018,-5.076611 1.28553,-9.681402 1.57389,-3.198737 3.38085,-5.743048 5.64466,-7.948019 1.50061,-1.4616 2.7679,-2.420933 4.38116,-3.316511 1.84392,-1.023627 2.58451,-1.212714 4.51431,-1.152587 1.54116,0.04802 1.61105,0.0624 2.39847,0.493579 0.8915,0.48817 1.53563,1.211794 1.74285,1.957945 0.18097,0.651596 0.16221,2.066222 -0.0553,4.168181 -0.10228,0.988577 -0.32705,3.597412 -0.49949,5.797412 -0.54924,7.007145 -0.96498,10.467109 -1.70471,14.1875 -1.39321,7.007022 -3.78144,10.590427 -7.79734,11.699436 -0.80413,0.222065 -3.23927,0.211598 -4.3125,-0.01854 z m 0.94249,-19.12163 c 0.82789,-0.211951 2.53567,-0.990562 3.49501,-1.593447 1.95141,-1.226337 3.99125,-3.005798 4.6851,-4.087068 0.60494,-0.942721 1.08976,-3.87312 1.21577,-7.348439 0.0681,-1.878751 0.0558,-2.051958 -0.1633,-2.294047 -0.9125,-1.008304 -2.01457,-0.764929 -3.82614,0.844945 -3.99314,3.548555 -7.69531,9.571317 -7.94317,12.922125 l -0.0603,0.815835 0.51516,0.465415 c 0.58937,0.53246 0.90986,0.574745 2.08192,0.274681 z"
         id="path5322"
         inkscape:connector-curvature="0"
         transform="matrix(1.1397423,0,0,1.1397423,-686.28613,98.651552)" />
      <path
         style="opacity:1;fill:#ffffff;fill-opacity:1;fill-rule:nonzero;stroke:#012c85;stroke-width:0;stroke-miterlimit:4;stroke-dasharray:none;stroke-dashoffset:0;stroke-opacity:1"
         d="m 228.0925,83.250524 c -0.99346,-0.496435 -2.03552,-1.612305 -2.4129,-2.583793 -0.23225,-0.597898 -0.27986,-0.961103 -0.27498,-2.098072 0.009,-2.093791 0.52773,-4.095363 1.862,-7.184484 2.15547,-4.990376 5.95321,-9.501316 9.56292,-11.358801 l 0.92224,-0.474567 2.59601,0.02474 c 2.58265,0.02461 2.59846,0.02644 3.07132,0.354131 0.59926,0.415286 0.85892,0.768529 1.64135,2.232895 0.37418,0.700302 0.62882,1.336849 0.62882,1.571915 0,0.217269 -0.13794,1.11259 -0.30654,1.989602 -0.50107,2.606381 -0.60681,3.611319 -0.60841,5.782067 -0.003,3.903832 0.81833,6.747452 2.26723,7.850757 0.41947,0.319409 0.51347,0.336559 1.82623,0.333163 1.9298,-0.005 2.40287,-0.235404 4.54661,-2.21446 1.01541,-0.937399 1.46634,-1.139583 1.73183,-0.776501 0.23447,0.32066 0.21132,0.521338 -0.14958,1.296655 -0.46951,1.008606 -1.31921,2.134552 -2.26461,3.000842 -1.67171,1.531816 -3.052,2.125863 -5.16776,2.224089 l -1.3125,0.06093 -1,-0.505832 c -1.12549,-0.569308 -1.83914,-1.23496 -2.49226,-2.324617 -0.60812,-1.014574 -0.8724,-1.768898 -1.25555,-3.583571 -0.17985,-0.851827 -0.37394,-1.595717 -0.43131,-1.653088 -0.0574,-0.05737 -0.61839,0.570198 -1.24671,1.394596 -3.28429,4.309249 -7.22787,7.022033 -10.20794,7.022033 -0.60108,0 -0.92607,-0.08109 -1.52551,-0.380635 z m 4.21513,-3.615968 c 1.22524,-0.625075 3.72141,-2.988025 5.04001,-4.771048 1.4899,-2.014642 3.00875,-4.886171 3.52289,-6.66035 0.5961,-2.057016 0.38554,-4.55304 -0.44289,-5.250118 -0.54026,-0.4546 -1.12658,-0.423531 -2.20693,0.116946 -1.58694,0.793914 -3.33105,2.982229 -5.76416,7.232253 -1.96531,3.432885 -2.71133,5.542832 -2.61341,7.39142 0.0534,1.008701 0.39223,1.960144 0.74905,2.103601 0.3771,0.151608 1.26427,0.06746 1.71544,-0.162704 z"
         id="path5324"
         inkscape:connector-curvature="0"
         transform="matrix(1.1397423,0,0,1.1397423,-686.28613,98.651552)" />
      <path
         style="opacity:1;fill:#ffffff;fill-opacity:1;fill-rule:nonzero;stroke:#012c85;stroke-width:0;stroke-miterlimit:4;stroke-dasharray:none;stroke-dashoffset:0;stroke-opacity:1"
         d="m 279.00178,72.058696 c -0.68041,-0.140613 -2.69576,-0.201308 -9.0625,-0.272931 -7.94014,-0.08932 -8.20071,-0.09984 -8.625,-0.348251 -0.92967,-0.5443 -0.75025,-1.635239 0.38431,-2.336681 1.07072,-0.661973 1.66379,-0.714499 9.78903,-0.866972 5.28064,-0.09909 7.69253,-0.10155 8.1875,-0.0083 2.37653,0.447538 3.67542,1.658438 3.2238,3.005414 -0.24708,0.736927 -0.68388,0.959159 -1.93734,0.985655 -0.59664,0.01261 -1.47855,-0.05844 -1.9598,-0.157894 z"
         id="path5326"
         inkscape:connector-curvature="0"
         transform="matrix(1.1397423,0,0,1.1397423,-686.28613,98.651552)" />
      <path
         style="opacity:1;fill:#ffffff;fill-opacity:1;fill-rule:nonzero;stroke:#012c85;stroke-width:0;stroke-miterlimit:4;stroke-dasharray:none;stroke-dashoffset:0;stroke-opacity:1"
         d="m 295.68614,82.476291 c -1.284,-0.656292 -1.31215,-0.753335 -1.2963,-4.470132 0.0195,-4.585757 0.33588,-7.85946 1.04491,-10.81382 0.722,-3.008352 1.42697,-4.444796 2.4165,-4.923819 1.05861,-0.512465 2.03584,-0.262378 2.38504,0.610366 0.37207,0.929903 0.23683,1.871854 -1.03816,7.230746 -1.05499,4.434199 -1.36159,6.521527 -0.95793,6.521527 0.2901,0 1.18566,-1.093774 3.02214,-3.691005 0.95669,-1.352999 2.18944,-3.068275 2.73944,-3.811726 3.19406,-4.317498 5.00037,-5.622269 7.78341,-5.622269 1.20975,0 1.83868,0.171712 2.56696,0.700836 1.18094,0.858005 1.80607,2.193526 2.33415,4.986664 0.96993,5.130078 1.12806,5.719701 1.81447,6.765729 0.58514,0.89169 1.28466,1.221508 2.55629,1.205263 2.28498,-0.02919 3.8344,-1.054595 8.58321,-5.680371 l 2.73651,-2.665621 0.0363,1.185567 c 0.0439,1.43434 -0.14126,2.735116 -0.46531,3.267976 -0.66831,1.098943 -3.20774,3.686234 -5.35765,5.458616 -0.83469,0.688116 -2.59517,1.768863 -3.83837,2.35635 -0.73427,0.346987 -0.79587,0.354441 -2.9375,0.355455 -2.02807,0.001 -2.2347,-0.02031 -2.83517,-0.291919 -0.82414,-0.372771 -2.01005,-1.595055 -2.51162,-2.588664 -0.50869,-1.007714 -0.91321,-2.406277 -1.52028,-5.256087 -0.54494,-2.558154 -0.84746,-3.573151 -1.26761,-4.252961 -0.76473,-1.237361 -2.18255,-0.989434 -3.74605,0.655051 -0.9859,1.036966 -1.50449,1.714569 -3.43297,4.485616 -3.06503,4.404156 -5.32686,7.079045 -6.85632,8.108444 -0.93084,0.626497 -1.05209,0.637283 -1.95812,0.174188 z"
         id="path5328"
         inkscape:connector-curvature="0"
         transform="matrix(1.1397423,0,0,1.1397423,-686.28613,98.651552)" />
      <path
         style="opacity:1;fill:#ffffff;fill-opacity:1;fill-rule:nonzero;stroke:#012c85;stroke-width:0;stroke-miterlimit:4;stroke-dasharray:none;stroke-dashoffset:0;stroke-opacity:1"
         d="m 295.77679,82.570498 c -1.28392,-0.64237 -1.4105,-1.005405 -1.41717,-4.064339 -0.0116,-5.303757 0.52064,-9.85228 1.52109,-13 0.63601,-2.001108 1.18011,-2.879012 2.02097,-3.260861 1.73461,-0.78772 2.83843,0.371732 2.46274,2.586871 -0.0804,0.473819 -0.53392,2.54899 -1.00791,4.61149 -1.03924,4.522119 -1.25282,5.632602 -1.25282,6.513809 0,0.513081 0.0443,0.673691 0.18599,0.673691 0.25108,0 1.28213,-1.318943 3.81648,-4.882106 1.16866,-1.643069 2.57328,-3.54491 3.12138,-4.226313 2.48183,-3.085433 4.33779,-4.139193 7.03004,-3.991462 1.21189,0.0665 1.84506,0.340904 2.61337,1.132601 1.01808,1.049058 1.38582,2.121269 2.16268,6.30567 0.73184,3.941875 1.28225,5.266276 2.44506,5.883376 0.50288,0.266878 0.68836,0.293715 1.75,0.253204 1.0225,-0.03902 1.30722,-0.101468 2.04918,-0.449466 1.60928,-0.754797 2.5969,-1.562178 6.47114,-5.290176 1.42055,-1.366931 2.61586,-2.485328 2.65625,-2.485328 0.11376,0 0.0849,1.696116 -0.0486,2.857318 -0.16107,1.400971 -0.42598,1.819158 -2.49317,3.935754 -2.80434,2.871362 -4.37391,4.067203 -6.9473,5.293067 l -1,0.476361 h -2.1875 c -2.06213,0 -2.22277,-0.01736 -2.80287,-0.302864 -0.81819,-0.40269 -1.91762,-1.52421 -2.40052,-2.44876 -0.56068,-1.073471 -0.83783,-2.007519 -1.55179,-5.229913 -0.74817,-3.376777 -0.99903,-4.108428 -1.62429,-4.737213 -0.56359,-0.566773 -1.01074,-0.606475 -1.93303,-0.171632 -1.10473,0.520858 -2.34414,1.950204 -4.99928,5.765382 -3.01007,4.325172 -5.05512,6.758896 -6.61453,7.871666 -1.02097,0.728554 -1.24517,0.770631 -2.02559,0.380173 z"
         id="path5330"
         inkscape:connector-curvature="0"
         transform="matrix(1.1397423,0,0,1.1397423,-686.28613,98.651552)" />
      <path
         style="opacity:1;fill:#ffffff;fill-opacity:1;fill-rule:nonzero;stroke:#012c85;stroke-width:0;stroke-miterlimit:4;stroke-dasharray:none;stroke-dashoffset:0;stroke-opacity:1"
         d="m 339.43965,84.693448 c -1.83025,-0.503123 -3.23064,-1.712455 -4.12509,-3.562289 -0.97545,-2.017373 -1.58587,-4.575628 -1.58587,-6.646354 0,-1.273405 0.0599,-1.427797 1.26638,-3.261519 0.91427,-1.389626 1.63412,-2.789685 1.90727,-3.709509 0.26388,-0.888571 0.26272,-1.989366 -0.002,-2.368009 -0.2625,-0.374777 -0.90266,-0.639609 -1.54607,-0.639609 -0.63407,0 -0.74066,-0.220998 -0.38452,-0.797248 0.6766,-1.094765 2.31746,-2.077478 3.4691,-2.077653 1.26286,-1.93e-4 1.40995,0.725949 0.86088,4.249901 -0.53847,3.455883 -0.62093,4.395921 -0.61952,7.0625 0.001,2.183945 0.0449,2.825827 0.26039,3.820255 0.32098,1.48114 0.7498,2.406902 1.41526,3.055321 0.5084,0.495375 0.51989,0.499253 1.41713,0.478283 2.75349,-0.06435 5.00285,-1.384248 10.76332,-6.315771 1.0283,-0.880323 1.91424,-1.600588 1.96875,-1.600588 0.15958,0 0.1115,0.451306 -0.25495,2.39322 -0.42066,2.22922 -0.50487,2.37215 -2.43668,4.136127 -3.72535,3.401707 -6.58557,5.251823 -8.92143,5.770774 -1.06731,0.237123 -2.61369,0.242574 -3.45186,0.01216 z"
         id="path5332"
         inkscape:connector-curvature="0"
         transform="matrix(1.1397423,0,0,1.1397423,-686.28613,98.651552)" />
      <path
         style="opacity:1;fill:#ffffff;fill-opacity:1;fill-rule:nonzero;stroke:#012c85;stroke-width:0;stroke-miterlimit:4;stroke-dasharray:none;stroke-dashoffset:0;stroke-opacity:1"
         d="m 361.04565,84.374555 c -2.52158,-0.392669 -4.51943,-1.705804 -5.4464,-3.579779 -0.36198,-0.731782 -0.42808,-1.008853 -0.47143,-1.976117 -0.0497,-1.108433 -0.0442,-1.134204 0.37347,-1.75 0.23315,-0.34375 0.92006,-1.215625 1.52648,-1.9375 1.37743,-1.639694 2.85098,-3.835963 3.27684,-4.883992 0.26184,-0.644408 0.3149,-0.949831 0.2747,-1.581223 -0.0433,-0.680499 -0.12015,-0.882261 -0.58909,-1.547221 -0.65286,-0.92575 -0.66958,-0.875655 0.82814,-2.480717 2.3517,-2.520247 5.63248,-4.367134 7.82403,-4.40448 0.94489,-0.0161 1.30655,0.153597 2.17222,1.019268 1.18981,1.18981 2.16423,3.005149 2.16398,4.031492 -1.3e-4,0.708237 -0.66525,1.895779 -1.54992,2.767479 -0.93128,0.917626 -1.68024,1.329394 -2.41802,1.329394 -1.0449,0 -1.11927,-0.492505 -0.35888,-2.3766 0.54711,-1.355594 0.64925,-1.896994 0.44908,-2.38026 -0.20434,-0.493312 -0.4622,-0.61814 -1.2769,-0.61814 -1.03539,0 -1.81607,0.459122 -3.28505,1.931939 -2.23954,2.245398 -3.33269,3.961791 -4.18692,6.57403 -0.75103,2.296632 -0.94457,4.986588 -0.44476,6.181531 0.45527,1.088452 1.65308,1.932704 2.88206,2.031355 0.92658,0.07438 2.93383,-0.140845 4.54983,-0.487843 3.56024,-0.764472 8.23508,-2.698538 11.54542,-4.776548 1.46335,-0.918592 1.9339,-1.15639 2.05285,-1.03744 0.0454,0.04545 0.10769,0.518647 0.13833,1.051555 l 0.0557,0.968921 -0.48261,0.384364 c -1.56687,1.247908 -5.50829,3.619397 -8.1076,4.878222 -2.14499,1.038796 -5.09395,2.074336 -6.8927,2.420401 -1.51138,0.290777 -3.60384,0.403477 -4.60284,0.247909 z"
         id="path5334"
         inkscape:connector-curvature="0"
         transform="matrix(1.1397423,0,0,1.1397423,-686.28613,98.651552)" />
      <path
         style="opacity:1;fill:#ffffff;fill-opacity:1;fill-rule:nonzero;stroke:#012c85;stroke-width:0;stroke-miterlimit:4;stroke-dasharray:none;stroke-dashoffset:0;stroke-opacity:1"
         d="m 387.72515,82.771539 c -1.95138,-0.624569 -3.50672,-1.981229 -4.39594,-3.834405 -0.70187,-1.462731 -0.71999,-1.775373 -0.17474,-3.013725 0.45323,-1.029374 0.55755,-1.743305 0.33831,-2.315363 -0.061,-0.159163 -0.37923,-0.553232 -0.70718,-0.87571 l -0.59627,-0.586322 0.27025,-1.435411 c 0.99264,-5.272262 3.89924,-9.803787 7.73968,-12.066491 2.10662,-1.241177 4.8745,-1.592329 6.4758,-0.821565 1.77176,0.852807 2.74857,2.743338 2.43421,4.711174 -0.43504,2.72321 -2.07803,5.109059 -5.18719,7.532518 -0.55324,0.431229 -2.28607,1.639364 -3.85074,2.684746 -1.56466,1.045381 -2.90577,2.014548 -2.98025,2.153701 -0.30963,0.578549 0.34745,2.061967 1.30384,2.943533 1.14996,1.059994 2.39426,1.387084 4.3651,1.147452 3.67687,-0.447063 6.73715,-2.073998 10.8904,-5.789663 0.81633,-0.730325 1.6266,-1.363593 1.8006,-1.407263 0.48762,-0.122386 0.71033,0.09734 0.7529,0.742806 0.072,1.091602 -1.05568,2.801084 -3.2078,4.86282 -1.61402,1.54623 -3.1336,2.644209 -5.11137,3.69323 -2.79344,1.481665 -4.5405,1.911968 -7.71857,1.901099 -1.31717,-0.0045 -1.92092,-0.06069 -2.44104,-0.227161 z m 0.055,-11.540571 c 4.73886,-3.633336 6.0771,-4.878767 6.78805,-6.317286 0.40634,-0.822168 0.46606,-1.05722 0.46606,-1.834315 0,-1.460027 -0.53616,-2.073208 -1.8128,-2.073208 -1.56547,0 -3.08509,1.393735 -4.47479,4.104104 -1.13243,2.208595 -2.53284,6.895896 -2.06027,6.895896 0.0455,0 0.53766,-0.348836 1.09375,-0.775191 z"
         id="path5336"
         inkscape:connector-curvature="0"
         transform="matrix(1.1397423,0,0,1.1397423,-686.28613,98.651552)" />
      <path
         style="opacity:1;fill:#ffffff;fill-opacity:1;fill-rule:nonzero;stroke:#012c85;stroke-width:0;stroke-miterlimit:4;stroke-dasharray:none;stroke-dashoffset:0;stroke-opacity:1"
         d="m 361.04565,84.374555 c -2.50706,-0.390407 -4.55282,-1.73085 -5.46287,-3.579425 -0.32756,-0.665366 -0.41016,-1.003242 -0.45525,-1.862311 -0.0365,-0.694623 -8e-5,-1.182251 0.10758,-1.442164 0.0895,-0.215979 0.73568,-1.090229 1.43604,-1.942776 3.07505,-3.743263 4.15598,-5.748965 3.88287,-7.204779 -0.0446,-0.237614 -0.30941,-0.78534 -0.58851,-1.217168 -0.61641,-0.953709 -0.62707,-0.922889 0.86784,-2.510925 2.38301,-2.531459 5.62393,-4.344245 7.83401,-4.381906 0.92069,-0.01569 1.3325,0.179654 2.16794,1.028375 1.1771,1.195819 2.14353,3.009741 2.14329,4.02281 -2.5e-4,1.085624 -1.60683,3.202755 -2.90859,3.832924 -0.97145,0.470273 -1.96631,0.281501 -1.96631,-0.373102 0,-0.134307 0.11811,-0.566227 0.26247,-0.959822 0.77519,-2.113542 0.8867,-2.572702 0.74254,-3.057337 -0.1718,-0.577558 -0.4271,-0.72079 -1.28475,-0.72079 -1.02695,0 -1.7833,0.446752 -3.26511,1.928598 -2.17861,2.178663 -3.29403,3.889698 -4.0741,6.249569 -0.5384,1.628764 -0.74293,2.597299 -0.83349,3.946833 -0.10153,1.513086 0.083,2.448411 0.62321,3.158862 0.45529,0.59878 1.53291,1.297068 2.19665,1.423415 0.6119,0.11648 3.17056,-0.130503 4.75758,-0.459241 3.53956,-0.733195 8.33215,-2.724017 11.87472,-4.932715 1.34861,-0.840817 1.71474,-1.017524 1.84286,-0.889406 0.0406,0.04056 0.0992,0.513826 0.13035,1.051707 l 0.0566,0.977967 -0.48353,0.381896 c -0.73225,0.578347 -3.56074,2.400759 -5.10852,3.291451 -3.31095,1.905331 -7.19524,3.472581 -9.8927,3.991551 -1.51138,0.290777 -3.60384,0.403477 -4.60284,0.247909 z"
         id="path5338"
         inkscape:connector-curvature="0"
         transform="matrix(1.1397423,0,0,1.1397423,-686.28613,98.651552)" />
    </g>
  </g>
</svg>
